<svg version="1.1" viewBox="0.0 0.0 960.0 540.0" fill="none" stroke="none" stroke-linecap="square" stroke-miterlimit="10" xmlns:xlink="http://www.w3.org/1999/xlink" xmlns="http://www.w3.org/2000/svg"><clipPath id="p.0"><path d="m0 0l960.0 0l0 540.0l-960.0 0l0 -540.0z" clip-rule="nonzero"/></clipPath><g clip-path="url(#p.0)"><path fill="#ffffff" d="m0 0l960.0 0l0 540.0l-960.0 0z" fill-rule="evenodd"/><path fill="#d9ead3" d="m104.13386 231.92126l158.67719 0l0 70.078735l-158.67719 0z" fill-rule="evenodd"/><path stroke="#595959" stroke-width="1.0" stroke-linejoin="round" stroke-linecap="butt" d="m104.13386 231.92126l158.67719 0l0 70.078735l-158.67719 0z" fill-rule="evenodd"/><path fill="#000000" d="m133.38391 273.8806l0 -9.671875l1.46875 0l0 1.359375q0.453125 -0.71875 1.203125 -1.140625q0.765625 -0.4375 1.71875 -0.4375q1.078125 0 1.765625 0.453125q0.6875 0.4375 0.96875 1.234375q1.15625 -1.6875 2.984375 -1.6875q1.453125 0 2.21875 0.796875q0.78125 0.796875 0.78125 2.453125l0 6.640625l-1.640625 0l0 -6.09375q0 -0.984375 -0.15625 -1.40625q-0.15625 -0.4375 -0.578125 -0.703125q-0.421875 -0.265625 -0.984375 -0.265625q-1.015625 0 -1.6875 0.6875q-0.671875 0.671875 -0.671875 2.15625l0 5.625l-1.640625 0l0 -6.28125q0 -1.09375 -0.40625 -1.640625q-0.40625 -0.546875 -1.3125 -0.546875q-0.6875 0 -1.28125 0.359375q-0.59375 0.359375 -0.859375 1.0625q-0.25 0.703125 -0.25 2.03125l0 5.015625l-1.640625 0zm21.853302 -1.1875q-0.921875 0.765625 -1.765625 1.09375q-0.828125 0.3125 -1.796875 0.3125q-1.59375 0 -2.453125 -0.78125q-0.859375 -0.78125 -0.859375 -1.984375q0 -0.71875 0.328125 -1.296875q0.328125 -0.59375 0.84375 -0.9375q0.53125 -0.359375 1.1875 -0.546875q0.46875 -0.125 1.453125 -0.25q1.984375 -0.234375 2.921875 -0.5625q0.015625 -0.34375 0.015625 -0.421875q0 -1.0 -0.46875 -1.421875q-0.625 -0.546875 -1.875 -0.546875q-1.15625 0 -1.703125 0.40625q-0.546875 0.40625 -0.8125 1.421875l-1.609375 -0.21875q0.21875 -1.015625 0.71875 -1.640625q0.5 -0.640625 1.453125 -0.984375q0.953125 -0.34375 2.1875 -0.34375q1.25 0 2.015625 0.296875q0.78125 0.28125 1.140625 0.734375q0.375 0.4375 0.515625 1.109375q0.078125 0.421875 0.078125 1.515625l0 2.1875q0 2.28125 0.109375 2.890625q0.109375 0.59375 0.40625 1.15625l-1.703125 0q-0.265625 -0.515625 -0.328125 -1.1875zm-0.140625 -3.671875q-0.890625 0.375 -2.671875 0.625q-1.015625 0.140625 -1.4375 0.328125q-0.421875 0.1875 -0.65625 0.53125q-0.21875 0.34375 -0.21875 0.78125q0 0.65625 0.5 1.09375q0.5 0.4375 1.453125 0.4375q0.9375 0 1.671875 -0.40625q0.75 -0.421875 1.09375 -1.140625q0.265625 -0.5625 0.265625 -1.640625l0 -0.609375zm4.203842 -6.609375l0 -1.890625l1.640625 0l0 1.890625l-1.640625 0zm0 11.46875l0 -9.671875l1.640625 0l0 9.671875l-1.640625 0zm4.144821 0l0 -9.671875l1.46875 0l0 1.375q1.0625 -1.59375 3.078125 -1.59375q0.875 0 1.609375 0.3125q0.734375 0.3125 1.09375 0.828125q0.375 0.5 0.515625 1.203125q0.09375 0.453125 0.09375 1.59375l0 5.953125l-1.640625 0l0 -5.890625q0 -1.0 -0.203125 -1.484375q-0.1875 -0.5 -0.671875 -0.796875q-0.484375 -0.296875 -1.140625 -0.296875q-1.046875 0 -1.8125 0.671875q-0.75 0.65625 -0.75 2.515625l0 5.28125l-1.640625 0zm8.860092 3.703125l0 -1.1875l10.859375 0l0 1.1875l-10.859375 0zm11.235092 -6.59375l1.625 -0.25q0.125 0.96875 0.75 1.5q0.625 0.515625 1.75 0.515625q1.125 0 1.671875 -0.453125q0.546875 -0.46875 0.546875 -1.09375q0 -0.546875 -0.484375 -0.875q-0.328125 -0.21875 -1.671875 -0.546875q-1.8125 -0.46875 -2.515625 -0.796875q-0.6875 -0.328125 -1.046875 -0.90625q-0.359375 -0.59375 -0.359375 -1.3125q0 -0.640625 0.296875 -1.1875q0.296875 -0.5625 0.8125 -0.921875q0.375 -0.28125 1.03125 -0.46875q0.671875 -0.203125 1.421875 -0.203125q1.140625 0 2.0 0.328125q0.859375 0.328125 1.265625 0.890625q0.421875 0.5625 0.578125 1.5l-1.609375 0.21875q-0.109375 -0.75 -0.640625 -1.171875q-0.515625 -0.421875 -1.46875 -0.421875q-1.140625 0 -1.625 0.375q-0.46875 0.375 -0.46875 0.875q0 0.3125 0.1875 0.578125q0.203125 0.265625 0.640625 0.4375q0.234375 0.09375 1.4375 0.421875q1.75 0.453125 2.4375 0.75q0.6875 0.296875 1.078125 0.859375q0.390625 0.5625 0.390625 1.40625q0 0.828125 -0.484375 1.546875q-0.46875 0.71875 -1.375 1.125q-0.90625 0.390625 -2.046875 0.390625q-1.875 0 -2.875 -0.78125q-0.984375 -0.78125 -1.25 -2.328125zm16.609375 -0.21875l1.6875 0.203125q-0.40625 1.484375 -1.484375 2.3125q-1.078125 0.8125 -2.765625 0.8125q-2.125 0 -3.375 -1.296875q-1.234375 -1.3125 -1.234375 -3.671875q0 -2.453125 1.25 -3.796875q1.265625 -1.34375 3.265625 -1.34375q1.9375 0 3.15625 1.328125q1.234375 1.3125 1.234375 3.703125q0 0.15625 0 0.4375l-7.21875 0q0.09375 1.59375 0.90625 2.453125q0.8125 0.84375 2.015625 0.84375q0.90625 0 1.546875 -0.46875q0.640625 -0.484375 1.015625 -1.515625zm-5.390625 -2.65625l5.40625 0q-0.109375 -1.21875 -0.625 -1.828125q-0.78125 -0.953125 -2.03125 -0.953125q-1.125 0 -1.90625 0.765625q-0.765625 0.75 -0.84375 2.015625zm9.125717 5.765625l0 -9.671875l1.46875 0l0 1.46875q0.5625 -1.03125 1.03125 -1.359375q0.484375 -0.328125 1.0625 -0.328125q0.828125 0 1.6875 0.53125l-0.5625 1.515625q-0.609375 -0.359375 -1.203125 -0.359375q-0.546875 0 -0.96875 0.328125q-0.421875 0.328125 -0.609375 0.890625q-0.28125 0.875 -0.28125 1.921875l0 5.0625l-1.625 0zm8.915802 0l-3.6875 -9.671875l1.734375 0l2.078125 5.796875q0.328125 0.9375 0.625 1.9375q0.203125 -0.765625 0.609375 -1.828125l2.140625 -5.90625l1.6875 0l-3.65625 9.671875l-1.53125 0zm13.265625 -3.109375l1.6875 0.203125q-0.40625 1.484375 -1.484375 2.3125q-1.078125 0.8125 -2.765625 0.8125q-2.125 0 -3.375 -1.296875q-1.234375 -1.3125 -1.234375 -3.671875q0 -2.453125 1.25 -3.796875q1.265625 -1.34375 3.265625 -1.34375q1.9375 0 3.15625 1.328125q1.234375 1.3125 1.234375 3.703125q0 0.15625 0 0.4375l-7.21875 0q0.09375 1.59375 0.90625 2.453125q0.8125 0.84375 2.015625 0.84375q0.90625 0 1.546875 -0.46875q0.640625 -0.484375 1.015625 -1.515625zm-5.390625 -2.65625l5.40625 0q-0.109375 -1.21875 -0.625 -1.828125q-0.78125 -0.953125 -2.03125 -0.953125q-1.125 0 -1.90625 0.765625q-0.765625 0.75 -0.84375 2.015625zm9.125717 5.765625l0 -9.671875l1.46875 0l0 1.46875q0.5625 -1.03125 1.0312653 -1.359375q0.484375 -0.328125 1.0625 -0.328125q0.828125 0 1.6875 0.53125l-0.5625 1.515625q-0.609375 -0.359375 -1.203125 -0.359375q-0.546875 0 -0.96875 0.328125q-0.42189026 0.328125 -0.60939026 0.890625q-0.28125 0.875 -0.28125 1.921875l0 5.0625l-1.625 0z" fill-rule="nonzero"/><path fill="#d9ead3" d="m110.33113 374.4013l0 0c-1.4393234 -8.639557 3.2862625 -17.1922 12.171524 -22.028717c8.885254 -4.836548 20.371902 -5.1087036 29.58574 -0.7010498l0 0c3.2638092 -5.023407 9.237564 -8.49173 16.114288 -9.355835c6.8767242 -0.86413574 13.848724 0.977417 18.807129 4.967621l0 0c2.7803497 -4.554535 8.239624 -7.6145935 14.440582 -8.09433c6.2009735 -0.47973633 12.266022 1.6887817 16.042984 5.736023l0 0c5.023117 -4.8277893 13.015015 -6.860504 20.517578 -5.2185364c7.502548 1.6419373 13.168213 6.6636353 14.545441 12.892181l0 0c6.154175 1.3711243 11.280457 4.856659 14.054413 9.556122c2.7739563 4.6994324 2.9234314 10.151764 0.40982056 14.948273l0 0c6.060089 6.4421997 7.4776917 15.026398 3.7237854 22.549072c-3.7538757 7.5226746 -12.115265 12.853668 -21.963837 14.0035095c-0.06942749 7.0603027 -4.810013 13.538757 -12.3945465 16.938263c-7.5845337 3.3995361 -16.82866 3.18927 -24.169281 -0.54971313l0 0c-3.1267242 8.455933 -11.927383 14.677734 -22.599792 15.977325c-10.672409 1.2996216 -21.303299 -2.5559387 -27.299759 -9.900909l0 0c-7.350403 3.6203613 -16.170273 4.663269 -24.470016 2.8934631c-8.299759 -1.7697754 -15.380264 -6.2032166 -19.644302 -12.300201l0 0c-7.5111923 0.71795654 -14.773468 -2.4606628 -18.182594 -7.9582825c-3.409134 -5.4976196 -2.2393875 -12.143951 2.928688 -16.640411l0 0c-6.7001724 -3.2210693 -10.119003 -9.612732 -8.473709 -15.84198c1.6452942 -6.229248 7.981888 -10.8845215 15.70549 -11.538269z" fill-rule="evenodd"/><path fill="#000000" fill-opacity="0.0" d="m102.95087 402.11453l0 0c3.1618347 1.52005 6.8144913 2.2095642 10.467545 1.9759827m4.7847137 22.623291c1.5709534 -0.15014648 3.1107788 -0.46810913 4.579773 -0.9457092m39.532364 10.352051c-1.1049042 -1.3533936 -2.0299835 -2.799591 -2.759491 -4.313965m52.660934 -1.7627258l0 0c0.5700531 -1.541626 0.9393921 -3.1283264 1.1018677 -4.7335815m35.460587 -11.654358c0.073898315 -7.5167847 -5.153076 -14.399231 -13.435791 -17.691101m31.675674 -18.860687c-1.3413391 2.5596008 -3.3890686 4.8302 -5.9826355 6.633728m-8.480347 -31.138794l0 0c0.22854614 1.0336304 0.33432007 2.0827942 0.31585693 3.1329346m-35.37828 -10.806274l0 0c-1.2530212 1.2043152 -2.2853394 2.5500793 -3.0648193 3.995453m-27.419037 -1.6376648l0 0c-0.6677551 1.0938721 -1.1663818 2.2513428 -1.4844055 3.4458008m-33.437515 0.9425049l0 0c1.9496307 0.9326477 3.7533112 2.0552063 5.371414 3.342987m-47.128143 19.386902l0 0c0.19837189 1.1907654 0.51181793 2.3668518 0.9374008 3.5172424" fill-rule="evenodd"/><path stroke="#595959" stroke-width="1.0" stroke-linejoin="round" stroke-linecap="butt" d="m110.33113 374.4013l0 0c-1.4393234 -8.639557 3.2862625 -17.1922 12.171524 -22.028717c8.885254 -4.836548 20.371902 -5.1087036 29.58574 -0.7010498l0 0c3.2638092 -5.023407 9.237564 -8.49173 16.114288 -9.355835c6.8767242 -0.86413574 13.848724 0.977417 18.807129 4.967621l0 0c2.7803497 -4.554535 8.239624 -7.6145935 14.440582 -8.09433c6.2009735 -0.47973633 12.266022 1.6887817 16.042984 5.736023l0 0c5.023117 -4.8277893 13.015015 -6.860504 20.517578 -5.2185364c7.502548 1.6419373 13.168213 6.6636353 14.545441 12.892181l0 0c6.154175 1.3711243 11.280457 4.856659 14.054413 9.556122c2.7739563 4.6994324 2.9234314 10.151764 0.40982056 14.948273l0 0c6.060089 6.4421997 7.4776917 15.026398 3.7237854 22.549072c-3.7538757 7.5226746 -12.115265 12.853668 -21.963837 14.0035095c-0.06942749 7.0603027 -4.810013 13.538757 -12.3945465 16.938263c-7.5845337 3.3995361 -16.82866 3.18927 -24.169281 -0.54971313l0 0c-3.1267242 8.455933 -11.927383 14.677734 -22.599792 15.977325c-10.672409 1.2996216 -21.303299 -2.5559387 -27.299759 -9.900909l0 0c-7.350403 3.6203613 -16.170273 4.663269 -24.470016 2.8934631c-8.299759 -1.7697754 -15.380264 -6.2032166 -19.644302 -12.300201l0 0c-7.5111923 0.71795654 -14.773468 -2.4606628 -18.182594 -7.9582825c-3.409134 -5.4976196 -2.2393875 -12.143951 2.928688 -16.640411l0 0c-6.7001724 -3.2210693 -10.119003 -9.612732 -8.473709 -15.84198c1.6452942 -6.229248 7.981888 -10.8845215 15.70549 -11.538269z" fill-rule="evenodd"/><path stroke="#595959" stroke-width="1.0" stroke-linejoin="round" stroke-linecap="butt" d="m102.95087 402.11453l0 0c3.1618347 1.52005 6.8144913 2.2095642 10.467545 1.9759827m4.7847137 22.623291c1.5709534 -0.15014648 3.1107788 -0.46810913 4.579773 -0.9457092m39.532364 10.352051c-1.1049042 -1.3533936 -2.0299835 -2.799591 -2.759491 -4.313965m52.660934 -1.7627258l0 0c0.5700531 -1.541626 0.9393921 -3.1283264 1.1018677 -4.7335815m35.460587 -11.654358c0.073898315 -7.5167847 -5.153076 -14.399231 -13.435791 -17.691101m31.675674 -18.860687c-1.3413391 2.5596008 -3.3890686 4.8302 -5.9826355 6.633728m-8.480347 -31.138794l0 0c0.22854614 1.0336304 0.33432007 2.0827942 0.31585693 3.1329346m-35.37828 -10.806274l0 0c-1.2530212 1.2043152 -2.2853394 2.5500793 -3.0648193 3.995453m-27.419037 -1.6376648l0 0c-0.6677551 1.0938721 -1.1663818 2.2513428 -1.4844055 3.4458008m-33.437515 0.9425049l0 0c1.9496307 0.9326477 3.7533112 2.0552063 5.371414 3.342987m-47.128143 19.386902l0 0c0.19837189 1.1907654 0.51181793 2.3668518 0.9374008 3.5172424" fill-rule="evenodd"/><path fill="#000000" d="m137.39687 396.76465l-1.640625 0l0 -10.453125q-0.59375 0.5625 -1.5625 1.140625q-0.953125 0.5625 -1.71875 0.84375l0 -1.59375q1.375 -0.640625 2.40625 -1.5625q1.03125 -0.921875 1.453125 -1.78125l1.0625 0l0 13.40625zm4.203842 -6.59375q0 -2.359375 0.484375 -3.796875q0.484375 -1.453125 1.4375 -2.234375q0.96875 -0.78125 2.421875 -0.78125q1.078125 0 1.890625 0.4375q0.8125 0.421875 1.328125 1.25q0.53125 0.8125 0.828125 1.984375q0.3125 1.15625 0.3125 3.140625q0 2.359375 -0.484375 3.8125q-0.484375 1.4375 -1.453125 2.234375q-0.953125 0.78125 -2.421875 0.78125q-1.921875 0 -3.03125 -1.390625q-1.3125 -1.671875 -1.3125 -5.4375zm1.671875 0q0 3.296875 0.765625 4.390625q0.78125 1.078125 1.90625 1.078125q1.140625 0 1.90625 -1.09375q0.765625 -1.09375 0.765625 -4.375q0 -3.296875 -0.765625 -4.375q-0.765625 -1.078125 -1.921875 -1.078125q-1.125 0 -1.796875 0.953125q-0.859375 1.21875 -0.859375 4.5zm9.610092 6.59375l0 -1.875l1.875 0l0 1.875l-1.875 0zm4.277054 -6.59375q0 -2.359375 0.484375 -3.796875q0.484375 -1.453125 1.4375 -2.234375q0.96875 -0.78125 2.421875 -0.78125q1.078125 0 1.890625 0.4375q0.8125 0.421875 1.328125 1.25q0.53125 0.8125 0.828125 1.984375q0.3125 1.15625 0.3125 3.140625q0 2.359375 -0.484375 3.8125q-0.484375 1.4375 -1.453125 2.234375q-0.953125 0.78125 -2.421875 0.78125q-1.921875 0 -3.03125 -1.390625q-1.3125 -1.671875 -1.3125 -5.4375zm1.671875 0q0 3.296875 0.765625 4.390625q0.78125 1.078125 1.90625 1.078125q1.140625 0 1.90625 -1.09375q0.765625 -1.09375 0.765625 -4.375q0 -3.296875 -0.765625 -4.375q-0.765625 -1.078125 -1.921875 -1.078125q-1.125 0 -1.796875 0.953125q-0.859375 1.21875 -0.859375 4.5zm9.610092 6.59375l0 -1.875l1.875 0l0 1.875l-1.875 0zm10.448929 0l-1.640625 0l0 -10.453125q-0.59375 0.5625 -1.5625 1.140625q-0.953125 0.5625 -1.71875 0.84375l0 -1.59375q1.375 -0.640625 2.40625 -1.5625q1.03125 -0.921875 1.453125 -1.78125l1.0625 0l0 13.40625zm5.110092 0l0 -1.875l1.875 0l0 1.875l-1.875 0zm4.277054 -6.59375q0 -2.359375 0.484375 -3.796875q0.484375 -1.453125 1.4375 -2.234375q0.96875 -0.78125 2.421875 -0.78125q1.078125 0 1.890625 0.4375q0.8125 0.421875 1.328125 1.25q0.53125 0.8125 0.828125 1.984375q0.3125 1.15625 0.3125 3.140625q0 2.359375 -0.484375 3.8125q-0.484375 1.4375 -1.453125 2.234375q-0.953125 0.78125 -2.421875 0.78125q-1.921875 0 -3.03125 -1.390625q-1.3125 -1.671875 -1.3125 -5.4375zm1.671875 0q0 3.296875 0.765625 4.390625q0.78125 1.078125 1.90625 1.078125q1.140625 0 1.90625 -1.09375q0.765625 -1.09375 0.765625 -4.375q0 -3.296875 -0.765625 -4.375q-0.765625 -1.078125 -1.921875 -1.078125q-1.125 0 -1.796875 0.953125q-0.859375 1.21875 -0.859375 4.5zm7.922592 6.828125l3.875 -13.8125l1.3125 0l-3.859375 13.8125l-1.328125 0zm14.573929 -1.8125l0 1.578125l-8.828125 0q-0.015625 -0.59375 0.1875 -1.140625q0.34375 -0.90625 1.078125 -1.78125q0.75 -0.875 2.15625 -2.015625q2.171875 -1.78125 2.9375 -2.828125q0.765625 -1.046875 0.765625 -1.96875q0 -0.984375 -0.703125 -1.640625q-0.6875 -0.671875 -1.8125 -0.671875q-1.1875 0 -1.90625 0.71875q-0.703125 0.703125 -0.703125 1.953125l-1.6875 -0.171875q0.171875 -1.890625 1.296875 -2.875q1.140625 -0.984375 3.03125 -0.984375q1.921875 0 3.046875 1.0625q1.125 1.0625 1.125 2.640625q0 0.796875 -0.328125 1.578125q-0.328125 0.78125 -1.09375 1.640625q-0.75 0.84375 -2.53125 2.34375q-1.46875 1.234375 -1.890625 1.6875q-0.421875 0.4375 -0.6875 0.875l6.546875 0zm7.016342 1.578125l0 -3.203125l-5.796875 0l0 -1.5l6.09375 -8.65625l1.34375 0l0 8.65625l1.796875 0l0 1.5l-1.796875 0l0 3.203125l-1.640625 0zm0 -4.703125l0 -6.015625l-4.1875 6.015625l4.1875 0z" fill-rule="nonzero"/><path fill="#fff2cc" d="m291.486 69.27145l0 0c-5.2241516 -11.346859 11.927734 -22.579567 44.17743 -28.931664c32.249695 -6.3521004 73.941345 -6.709568 107.383606 -0.92072296l0 0c11.846283 -6.597534 33.52841 -11.152679 58.487976 -12.287588c24.959564 -1.1349087 50.264984 1.2837181 68.26187 6.52429l0 0c10.091492 -5.9817505 29.906311 -10.000723 52.413147 -10.630775c22.506836 -0.6300545 44.520447 2.2179794 58.229187 7.53347l0 0c18.23175 -6.340641 47.238953 -9.010315 74.47003 -6.853838c27.23108 2.156477 47.795044 8.75178 52.793762 16.932089l0 0c22.337036 1.800766 40.9433 6.378559 51.011536 12.550625c10.068237 6.172062 10.61084 13.332924 1.4874878 19.632454l0 0c21.995483 8.46096 27.140747 19.735085 13.515747 29.615074c-13.625 9.87999 -43.973267 16.881485 -79.71942 18.391655c-0.25195312 9.272728 -17.458252 17.781258 -44.986877 22.246056c-27.528625 4.4647827 -61.08081 4.1886444 -87.72418 -0.7220001l0 0c-11.348633 11.105682 -43.29132 19.277145 -82.02759 20.983994c-38.736267 1.7068634 -77.3219 -3.3568573 -99.08649 -13.003464l0 0c-26.678802 4.754837 -58.691162 6.1245575 -88.815735 3.800171c-30.124542 -2.3243866 -55.82376 -8.147079 -71.300415 -16.154587l0 0c-27.26239 0.9429016 -53.62137 -3.2317657 -65.995056 -10.452118c-12.3736725 -7.22036 -8.128006 -15.949371 10.629913 -21.854866l0 0c-24.318771 -4.2304077 -36.727676 -12.624954 -30.755966 -20.806198c5.9717255 -8.181252 28.97084 -14.295303 57.004257 -15.153923z" fill-rule="evenodd"/><path fill="#000000" fill-opacity="0.0" d="m264.6988 105.66889l0 0c11.476105 1.9963455 24.733704 2.9019394 37.992706 2.5951767m17.366486 29.712524c5.701874 -0.19720459 11.2907715 -0.6148224 16.62262 -1.2420654m143.48557 13.595963c-4.010315 -1.7774658 -7.367981 -3.6768646 -10.015717 -5.6657867m191.13672 -2.3150787l0 0c2.0690308 -2.0247345 3.409546 -4.108612 3.9992676 -6.2169037m128.70679 -15.306366c0.2682495 -9.872246 -18.70343 -18.91137 -48.766174 -23.23481m114.96924 -24.770874c-4.8685913 3.3616867 -12.300964 6.343788 -21.714478 8.712502m-30.78003 -40.896465l0 0c0.8295288 1.3575249 1.21344 2.7354507 1.1464233 4.114685m-128.40808 -14.192524l0 0c-4.5479126 1.5816727 -8.2948 3.3491745 -11.123962 5.247467m-99.51941 -2.1508522l0 0c-2.423645 1.4366226 -4.2334595 2.9568176 -5.3877563 4.5255623m-121.36392 1.237854l0 0c7.076355 1.2249184 13.622955 2.699234 19.495972 4.390568m-171.05505 25.461979l0 0c0.7200012 1.5638962 1.8576965 3.1085052 3.4023438 4.619377" fill-rule="evenodd"/><path stroke="#595959" stroke-width="1.0" stroke-linejoin="round" stroke-linecap="butt" d="m291.486 69.27145l0 0c-5.2241516 -11.346859 11.927734 -22.579567 44.17743 -28.931664c32.249695 -6.3521004 73.941345 -6.709568 107.383606 -0.92072296l0 0c11.846283 -6.597534 33.52841 -11.152679 58.487976 -12.287588c24.959564 -1.1349087 50.264984 1.2837181 68.26187 6.52429l0 0c10.091492 -5.9817505 29.906311 -10.000723 52.413147 -10.630775c22.506836 -0.6300545 44.520447 2.2179794 58.229187 7.53347l0 0c18.23175 -6.340641 47.238953 -9.010315 74.47003 -6.853838c27.23108 2.156477 47.795044 8.75178 52.793762 16.932089l0 0c22.337036 1.800766 40.9433 6.378559 51.011536 12.550625c10.068237 6.172062 10.61084 13.332924 1.4874878 19.632454l0 0c21.995483 8.46096 27.140747 19.735085 13.515747 29.615074c-13.625 9.87999 -43.973267 16.881485 -79.71942 18.391655c-0.25195312 9.272728 -17.458252 17.781258 -44.986877 22.246056c-27.528625 4.4647827 -61.08081 4.1886444 -87.72418 -0.7220001l0 0c-11.348633 11.105682 -43.29132 19.277145 -82.02759 20.983994c-38.736267 1.7068634 -77.3219 -3.3568573 -99.08649 -13.003464l0 0c-26.678802 4.754837 -58.691162 6.1245575 -88.815735 3.800171c-30.124542 -2.3243866 -55.82376 -8.147079 -71.300415 -16.154587l0 0c-27.26239 0.9429016 -53.62137 -3.2317657 -65.995056 -10.452118c-12.3736725 -7.22036 -8.128006 -15.949371 10.629913 -21.854866l0 0c-24.318771 -4.2304077 -36.727676 -12.624954 -30.755966 -20.806198c5.9717255 -8.181252 28.97084 -14.295303 57.004257 -15.153923z" fill-rule="evenodd"/><path stroke="#595959" stroke-width="1.0" stroke-linejoin="round" stroke-linecap="butt" d="m264.6988 105.66889l0 0c11.476105 1.9963455 24.733704 2.9019394 37.992706 2.5951767m17.366486 29.712524c5.701874 -0.19720459 11.2907715 -0.6148224 16.62262 -1.2420654m143.48557 13.595963c-4.010315 -1.7774658 -7.367981 -3.6768646 -10.015717 -5.6657867m191.13672 -2.3150787l0 0c2.0690308 -2.0247345 3.409546 -4.108612 3.9992676 -6.2169037m128.70679 -15.306366c0.2682495 -9.872246 -18.70343 -18.91137 -48.766174 -23.23481m114.96924 -24.770874c-4.8685913 3.3616867 -12.300964 6.343788 -21.714478 8.712502m-30.78003 -40.896465l0 0c0.8295288 1.3575249 1.21344 2.7354507 1.1464233 4.114685m-128.40808 -14.192524l0 0c-4.5479126 1.5816727 -8.2948 3.3491745 -11.123962 5.247467m-99.51941 -2.1508522l0 0c-2.423645 1.4366226 -4.2334595 2.9568176 -5.3877563 4.5255623m-121.36392 1.237854l0 0c7.076355 1.2249184 13.622955 2.699234 19.495972 4.390568m-171.05505 25.461979l0 0c0.7200012 1.5638962 1.8576965 3.1085052 3.4023438 4.619377" fill-rule="evenodd"/><path fill="#000000" d="m461.29865 96.47411l-3.53125 -13.359375l1.8125 0l2.03125 8.765625q0.328125 1.375 0.5625 2.71875q0.5 -2.140625 0.59375 -2.46875l2.546875 -9.015625l2.125 0l1.921875 6.765625q0.71875 2.515625 1.03125 4.71875q0.265625 -1.265625 0.671875 -2.890625l2.09375 -8.59375l1.78125 0l-3.671875 13.359375l-1.703125 0l-2.8125 -10.171875q-0.359375 -1.28125 -0.421875 -1.5625q-0.203125 0.90625 -0.390625 1.5625l-2.828125 10.171875l-1.8125 0zm13.11908 0l5.125 -13.359375l1.90625 0l5.46875 13.359375l-2.015625 0l-1.546875 -4.046875l-5.59375 0l-1.46875 4.046875l-1.875 0zm3.859375 -5.484375l4.53125 0l-1.40625 -3.703125q-0.625 -1.6875 -0.9375 -2.765625q-0.265625 1.28125 -0.71875 2.546875l-1.46875 3.921875zm10.037323 5.484375l0 -13.359375l1.8125 0l7.015625 10.484375l0 -10.484375l1.6875 0l0 13.359375l-1.8125 0l-7.015625 -10.5l0 10.5l-1.6875 0zm17.828125 -4.015625l0 -1.640625l5.03125 0l0 1.640625l-5.03125 0zm17.75534 4.015625l-1.640625 0l0 -10.453125q-0.59375 0.5625 -1.5625 1.140625q-0.953125 0.5625 -1.71875 0.84375l0 -1.59375q1.375 -0.640625 2.40625 -1.5625q1.03125 -0.921875 1.453125 -1.78125l1.0625 0l0 13.40625zm4.2038574 -6.59375q0 -2.359375 0.484375 -3.796875q0.484375 -1.453125 1.4375 -2.234375q0.96875 -0.78125 2.421875 -0.78125q1.078125 0 1.890625 0.4375q0.8125 0.421875 1.328125 1.25q0.53125 0.8125 0.828125 1.984375q0.3125 1.15625 0.3125 3.140625q0 2.359375 -0.484375 3.8125q-0.484375 1.4375 -1.453125 2.234375q-0.953125 0.78125 -2.421875 0.78125q-1.921875 0 -3.03125 -1.390625q-1.3125 -1.671875 -1.3125 -5.4375zm1.671875 0q0 3.296875 0.765625 4.390625q0.78125 1.078125 1.90625 1.078125q1.140625 0 1.90625 -1.09375q0.765625 -1.09375 0.765625 -4.375q0 -3.296875 -0.765625 -4.375q-0.765625 -1.078125 -1.921875 -1.078125q-1.125 0 -1.796875 0.953125q-0.859375 1.21875 -0.859375 4.5zm9.610107 6.59375l0 -1.875l1.875 0l0 1.875l-1.875 0zm4.2770386 -6.59375q0 -2.359375 0.484375 -3.796875q0.484375 -1.453125 1.4375 -2.234375q0.96875 -0.78125 2.421875 -0.78125q1.078125 0 1.890625 0.4375q0.8125 0.421875 1.328125 1.25q0.53125 0.8125 0.828125 1.984375q0.3125 1.15625 0.3125 3.140625q0 2.359375 -0.484375 3.8125q-0.484375 1.4375 -1.453125 2.234375q-0.953125 0.78125 -2.421875 0.78125q-1.921875 0 -3.03125 -1.390625q-1.3125 -1.671875 -1.3125 -5.4375zm1.671875 0q0 3.296875 0.765625 4.390625q0.78125 1.078125 1.90625 1.078125q1.140625 0 1.90625 -1.09375q0.765625 -1.09375 0.765625 -4.375q0 -3.296875 -0.765625 -4.375q-0.765625 -1.078125 -1.921875 -1.078125q-1.125 0 -1.796875 0.953125q-0.859375 1.21875 -0.859375 4.5zm9.610107 6.59375l0 -1.875l1.875 0l0 1.875l-1.875 0zm4.2770386 -6.59375q0 -2.359375 0.484375 -3.796875q0.484375 -1.453125 1.4375 -2.234375q0.96875 -0.78125 2.421875 -0.78125q1.078125 0 1.890625 0.4375q0.8125 0.421875 1.328125 1.25q0.53125 0.8125 0.828125 1.984375q0.3125 1.15625 0.3125 3.140625q0 2.359375 -0.484375 3.8125q-0.484375 1.4375 -1.453125 2.234375q-0.953125 0.78125 -2.421875 0.78125q-1.921875 0 -3.03125 -1.390625q-1.3125 -1.671875 -1.3125 -5.4375zm1.671875 0q0 3.296875 0.765625 4.390625q0.78125 1.078125 1.90625 1.078125q1.140625 0 1.90625 -1.09375q0.765625 -1.09375 0.765625 -4.375q0 -3.296875 -0.765625 -4.375q-0.765625 -1.078125 -1.921875 -1.078125q-1.125 0 -1.796875 0.953125q-0.859375 1.21875 -0.859375 4.5zm9.610107 6.59375l0 -1.875l1.875 0l0 1.875l-1.875 0zm4.2770386 -6.59375q0 -2.359375 0.484375 -3.796875q0.484375 -1.453125 1.4375 -2.234375q0.96875 -0.78125 2.421875 -0.78125q1.078125 0 1.890625 0.4375q0.8125 0.421875 1.328125 1.25q0.53125 0.8125 0.828125 1.984375q0.3125 1.15625 0.3125 3.140625q0 2.359375 -0.484375 3.8125q-0.484375 1.4375 -1.453125 2.234375q-0.953125 0.78125 -2.421875 0.78125q-1.921875 0 -3.03125 -1.390625q-1.3125 -1.671875 -1.3125 -5.4375zm1.671875 0q0 3.296875 0.765625 4.390625q0.78125 1.078125 1.90625 1.078125q1.140625 0 1.90625 -1.09375q0.765625 -1.09375 0.765625 -4.375q0 -3.296875 -0.765625 -4.375q-0.765625 -1.078125 -1.921875 -1.078125q-1.125 0 -1.796875 0.953125q-0.859375 1.21875 -0.859375 4.5zm7.9226074 6.828125l3.875 -13.8125l1.3125 0l-3.859375 13.8125l-1.328125 0zm14.573914 -1.8125l0 1.578125l-8.828125 0q-0.015625 -0.59375 0.1875 -1.140625q0.34375 -0.90625 1.078125 -1.78125q0.75 -0.875 2.15625 -2.015625q2.171875 -1.78125 2.9375 -2.828125q0.765625 -1.046875 0.765625 -1.96875q0 -0.984375 -0.703125 -1.640625q-0.6875 -0.671875 -1.8125 -0.671875q-1.1875 0 -1.90625 0.71875q-0.703125 0.703125 -0.703125 1.953125l-1.6875 -0.171875q0.171875 -1.890625 1.296875 -2.875q1.140625 -0.984375 3.03125 -0.984375q1.921875 0 3.046875 1.0625q1.125 1.0625 1.125 2.640625q0 0.796875 -0.328125 1.578125q-0.328125 0.78125 -1.09375 1.640625q-0.75 0.84375 -2.53125 2.34375q-1.46875 1.234375 -1.890625 1.6875q-0.421875 0.4375 -0.6875 0.875l6.546875 0zm7.0163574 1.578125l0 -3.203125l-5.796875 0l0 -1.5l6.09375 -8.65625l1.34375 0l0 8.65625l1.796875 0l0 1.5l-1.796875 0l0 3.203125l-1.640625 0zm0 -4.703125l0 -6.015625l-4.1875 6.015625l4.1875 0z" fill-rule="nonzero"/><path fill="#000000" fill-opacity="0.0" d="m183.47244 231.92126l0 -34.13005l373.48032 0l0 -34.78334" fill-rule="evenodd"/><path stroke="#595959" stroke-width="1.0" stroke-linejoin="round" stroke-linecap="butt" d="m183.47244 231.92126l0 -34.13005l373.48032 0l0 -34.78334" fill-rule="evenodd"/><path fill="#000000" fill-opacity="0.0" d="m183.47244 302.0l0 42.897644" fill-rule="evenodd"/><path stroke="#595959" stroke-width="1.0" stroke-linejoin="round" stroke-linecap="butt" d="m183.47244 302.0l0 42.897644" fill-rule="evenodd"/><path fill="#c9daf8" d="m478.01678 231.92126l158.67719 0l0 70.078735l-158.67719 0z" fill-rule="evenodd"/><path stroke="#595959" stroke-width="1.0" stroke-linejoin="round" stroke-linecap="butt" d="m478.01678 231.92126l158.67719 0l0 70.078735l-158.67719 0z" fill-rule="evenodd"/><path fill="#000000" d="m516.9902 273.8806l0 -8.40625l-1.453125 0l0 -1.265625l1.453125 0l0 -1.03125q0 -0.96875 0.171875 -1.453125q0.234375 -0.640625 0.828125 -1.03125q0.59375 -0.390625 1.671875 -0.390625q0.6875 0 1.53125 0.15625l-0.25 1.4375q-0.5 -0.09375 -0.953125 -0.09375q-0.75 0 -1.0625 0.328125q-0.3125 0.3125 -0.3125 1.1875l0 0.890625l1.890625 0l0 1.265625l-1.890625 0l0 8.40625l-1.625 0zm11.105164 -1.1875q-0.921875 0.765625 -1.765625 1.09375q-0.828125 0.3125 -1.796875 0.3125q-1.59375 0 -2.453125 -0.78125q-0.859375 -0.78125 -0.859375 -1.984375q0 -0.71875 0.328125 -1.296875q0.328125 -0.59375 0.84375 -0.9375q0.53125 -0.359375 1.1875 -0.546875q0.46875 -0.125 1.453125 -0.25q1.984375 -0.234375 2.921875 -0.5625q0.015625 -0.34375 0.015625 -0.421875q0 -1.0 -0.46875 -1.421875q-0.625 -0.546875 -1.875 -0.546875q-1.15625 0 -1.703125 0.40625q-0.546875 0.40625 -0.8125 1.421875l-1.609375 -0.21875q0.21875 -1.015625 0.71875 -1.640625q0.5 -0.640625 1.453125 -0.984375q0.953125 -0.34375 2.1875 -0.34375q1.25 0 2.015625 0.296875q0.78125 0.28125 1.140625 0.734375q0.375 0.4375 0.515625 1.109375q0.078125 0.421875 0.078125 1.515625l0 2.1875q0 2.28125 0.109375 2.890625q0.109375 0.59375 0.40625 1.15625l-1.703125 0q-0.265625 -0.515625 -0.328125 -1.1875zm-0.140625 -3.671875q-0.890625 0.375 -2.671875 0.625q-1.015625 0.140625 -1.4375 0.328125q-0.421875 0.1875 -0.65625 0.53125q-0.21875 0.34375 -0.21875 0.78125q0 0.65625 0.5 1.09375q0.5 0.4375 1.453125 0.4375q0.9375 0 1.671875 -0.40625q0.75 -0.421875 1.09375 -1.140625q0.265625 -0.5625 0.265625 -1.640625l0 -0.609375zm4.1882324 4.859375l0 -9.671875l1.46875 0l0 1.46875q0.5625 -1.03125 1.03125 -1.359375q0.484375 -0.328125 1.0625 -0.328125q0.828125 0 1.6875 0.53125l-0.5625 1.515625q-0.609375 -0.359375 -1.203125 -0.359375q-0.546875 0 -0.96875 0.328125q-0.421875 0.328125 -0.609375 0.890625q-0.28125 0.875 -0.28125 1.921875l0 5.0625l-1.625 0zm4.7126465 3.703125l0 -1.1875l10.859375 0l0 1.1875l-10.859375 0zm11.235107 -6.59375l1.625 -0.25q0.125 0.96875 0.75 1.5q0.625 0.515625 1.75 0.515625q1.125 0 1.671875 -0.453125q0.546875 -0.46875 0.546875 -1.09375q0 -0.546875 -0.484375 -0.875q-0.328125 -0.21875 -1.671875 -0.546875q-1.8125 -0.46875 -2.515625 -0.796875q-0.6875 -0.328125 -1.046875 -0.90625q-0.359375 -0.59375 -0.359375 -1.3125q0 -0.640625 0.296875 -1.1875q0.296875 -0.5625 0.8125 -0.921875q0.375 -0.28125 1.03125 -0.46875q0.671875 -0.203125 1.421875 -0.203125q1.140625 0 2.0 0.328125q0.859375 0.328125 1.265625 0.890625q0.421875 0.5625 0.578125 1.5l-1.609375 0.21875q-0.109375 -0.75 -0.640625 -1.171875q-0.515625 -0.421875 -1.46875 -0.421875q-1.140625 0 -1.625 0.375q-0.46875 0.375 -0.46875 0.875q0 0.3125 0.1875 0.578125q0.203125 0.265625 0.640625 0.4375q0.234375 0.09375 1.4375 0.421875q1.75 0.453125 2.4375 0.75q0.6875 0.296875 1.078125 0.859375q0.390625 0.5625 0.390625 1.40625q0 0.828125 -0.484375 1.546875q-0.46875 0.71875 -1.375 1.125q-0.90625 0.390625 -2.046875 0.390625q-1.875 0 -2.875 -0.78125q-0.984375 -0.78125 -1.25 -2.328125zm16.609375 -0.21875l1.6875 0.203125q-0.40625 1.484375 -1.484375 2.3125q-1.078125 0.8125 -2.765625 0.8125q-2.125 0 -3.375 -1.296875q-1.234375 -1.3125 -1.234375 -3.671875q0 -2.453125 1.25 -3.796875q1.265625 -1.34375 3.265625 -1.34375q1.9375 0 3.15625 1.328125q1.234375 1.3125 1.234375 3.703125q0 0.15625 0 0.4375l-7.21875 0q0.09375 1.59375 0.90625 2.453125q0.8125 0.84375 2.015625 0.84375q0.90625 0 1.546875 -0.46875q0.640625 -0.484375 1.015625 -1.515625zm-5.390625 -2.65625l5.40625 0q-0.109375 -1.21875 -0.625 -1.828125q-0.78125 -0.953125 -2.03125 -0.953125q-1.125 0 -1.90625 0.765625q-0.765625 0.75 -0.84375 2.015625zm9.125732 5.765625l0 -9.671875l1.46875 0l0 1.46875q0.5625 -1.03125 1.03125 -1.359375q0.484375 -0.328125 1.0625 -0.328125q0.828125 0 1.6875 0.53125l-0.5625 1.515625q-0.609375 -0.359375 -1.203125 -0.359375q-0.546875 0 -0.96875 0.328125q-0.421875 0.328125 -0.609375 0.890625q-0.28125 0.875 -0.28125 1.921875l0 5.0625l-1.625 0zm8.9157715 0l-3.6875 -9.671875l1.734375 0l2.078125 5.796875q0.328125 0.9375 0.625 1.9375q0.203125 -0.765625 0.609375 -1.828125l2.140625 -5.90625l1.6875 0l-3.65625 9.671875l-1.53125 0zm13.265625 -3.109375l1.6875 0.203125q-0.40625 1.484375 -1.484375 2.3125q-1.078125 0.8125 -2.765625 0.8125q-2.125 0 -3.375 -1.296875q-1.234375 -1.3125 -1.234375 -3.671875q0 -2.453125 1.25 -3.796875q1.265625 -1.34375 3.265625 -1.34375q1.9375 0 3.15625 1.328125q1.234375 1.3125 1.234375 3.703125q0 0.15625 0 0.4375l-7.21875 0q0.09375 1.59375 0.90625 2.453125q0.8125 0.84375 2.015625 0.84375q0.90625 0 1.546875 -0.46875q0.640625 -0.484375 1.015625 -1.515625zm-5.390625 -2.65625l5.40625 0q-0.109375 -1.21875 -0.625 -1.828125q-0.78125 -0.953125 -2.03125 -0.953125q-1.125 0 -1.90625 0.765625q-0.765625 0.75 -0.84375 2.015625zm9.125732 5.765625l0 -9.671875l1.46875 0l0 1.46875q0.5625 -1.03125 1.03125 -1.359375q0.484375 -0.328125 1.0625 -0.328125q0.828125 0 1.6875 0.53125l-0.5625 1.515625q-0.609375 -0.359375 -1.203125 -0.359375q-0.546875 0 -0.96875 0.328125q-0.421875 0.328125 -0.609375 0.890625q-0.28125 0.875 -0.28125 1.921875l0 5.0625l-1.625 0z" fill-rule="nonzero"/><path fill="#c9daf8" d="m484.21405 374.4013l0 0c-1.4393005 -8.639557 3.2862854 -17.1922 12.171539 -22.028717c8.885254 -4.836548 20.371918 -5.1087036 29.585724 -0.7010498l0 0c3.263855 -5.023407 9.237549 -8.49173 16.114319 -9.355835c6.876709 -0.86413574 13.848694 0.977417 18.807129 4.967621l0 0c2.7803345 -4.554535 8.239624 -7.6145935 14.440552 -8.09433c6.200989 -0.47973633 12.266052 1.6887817 16.042969 5.736023l0 0c5.0231323 -4.8277893 13.015076 -6.860504 20.517578 -5.2185364c7.5025635 1.6419373 13.168274 6.6636353 14.545471 12.892181l0 0c6.154175 1.3711243 11.280457 4.856659 14.054382 9.556122c2.7739868 4.6994324 2.923462 10.151764 0.40985107 14.948273l0 0c6.0600586 6.4421997 7.477661 15.026398 3.723816 22.549072c-3.7539062 7.5226746 -12.115295 12.853668 -21.963867 14.0035095c-0.06939697 7.0603027 -4.8099976 13.538757 -12.394531 16.938263c-7.5845337 3.3995361 -16.828674 3.18927 -24.169312 -0.54971313l0 0c-3.126709 8.455933 -11.927368 14.677734 -22.599792 15.977325c-10.672363 1.2996216 -21.303284 -2.5559387 -27.299744 -9.900909l0 0c-7.350403 3.6203613 -16.170288 4.663269 -24.470032 2.8934631c-8.299744 -1.7697754 -15.380249 -6.2032166 -19.644287 -12.300201l0 0c-7.5112 0.71795654 -14.773468 -2.4606628 -18.182587 -7.9582825c-3.4091492 -5.4976196 -2.2394104 -12.143951 2.9286804 -16.640411l0 0c-6.700165 -3.2210693 -10.119019 -9.612732 -8.473724 -15.84198c1.6452942 -6.229248 7.981903 -10.8845215 15.705505 -11.538269z" fill-rule="evenodd"/><path fill="#000000" fill-opacity="0.0" d="m476.8338 402.11453l0 0c3.1618347 1.52005 6.8144836 2.2095642 10.467529 1.9759827m4.784729 22.623291c1.5709534 -0.15014648 3.1107788 -0.46810913 4.579773 -0.9457092m39.53235 10.352051c-1.1049194 -1.3533936 -2.0299683 -2.799591 -2.7594604 -4.313965m52.66095 -1.7627258l0 0c0.5700073 -1.541626 0.93933105 -3.1283264 1.1018066 -4.7335815m35.460632 -11.654358c0.07385254 -7.5167847 -5.153076 -14.399231 -13.435791 -17.691101m31.67566 -18.860687c-1.3413696 2.5596008 -3.3890991 4.8302 -5.982666 6.633728m-8.480347 -31.138794l0 0c0.22857666 1.0336304 0.3343506 2.0827942 0.31585693 3.1329346m-35.378235 -10.806274l0 0c-1.2530518 1.2043152 -2.2853394 2.5500793 -3.0648193 3.995453m-27.419067 -1.6376648l0 0c-0.6677246 1.0938721 -1.1663818 2.2513428 -1.484375 3.4458008m-33.43756 0.9425049l0 0c1.949646 0.9326477 3.753357 2.0552063 5.37146 3.342987m-47.128174 19.386902l0 0c0.19839478 1.1907654 0.5118408 2.3668518 0.93740845 3.5172424" fill-rule="evenodd"/><path stroke="#595959" stroke-width="1.0" stroke-linejoin="round" stroke-linecap="butt" d="m484.21405 374.4013l0 0c-1.4393005 -8.639557 3.2862854 -17.1922 12.171539 -22.028717c8.885254 -4.836548 20.371918 -5.1087036 29.585724 -0.7010498l0 0c3.263855 -5.023407 9.237549 -8.49173 16.114319 -9.355835c6.876709 -0.86413574 13.848694 0.977417 18.807129 4.967621l0 0c2.7803345 -4.554535 8.239624 -7.6145935 14.440552 -8.09433c6.200989 -0.47973633 12.266052 1.6887817 16.042969 5.736023l0 0c5.0231323 -4.8277893 13.015076 -6.860504 20.517578 -5.2185364c7.5025635 1.6419373 13.168274 6.6636353 14.545471 12.892181l0 0c6.154175 1.3711243 11.280457 4.856659 14.054382 9.556122c2.7739868 4.6994324 2.923462 10.151764 0.40985107 14.948273l0 0c6.0600586 6.4421997 7.477661 15.026398 3.723816 22.549072c-3.7539062 7.5226746 -12.115295 12.853668 -21.963867 14.0035095c-0.06939697 7.0603027 -4.8099976 13.538757 -12.394531 16.938263c-7.5845337 3.3995361 -16.828674 3.18927 -24.169312 -0.54971313l0 0c-3.126709 8.455933 -11.927368 14.677734 -22.599792 15.977325c-10.672363 1.2996216 -21.303284 -2.5559387 -27.299744 -9.900909l0 0c-7.350403 3.6203613 -16.170288 4.663269 -24.470032 2.8934631c-8.299744 -1.7697754 -15.380249 -6.2032166 -19.644287 -12.300201l0 0c-7.5112 0.71795654 -14.773468 -2.4606628 -18.182587 -7.9582825c-3.4091492 -5.4976196 -2.2394104 -12.143951 2.9286804 -16.640411l0 0c-6.700165 -3.2210693 -10.119019 -9.612732 -8.473724 -15.84198c1.6452942 -6.229248 7.981903 -10.8845215 15.705505 -11.538269z" fill-rule="evenodd"/><path stroke="#595959" stroke-width="1.0" stroke-linejoin="round" stroke-linecap="butt" d="m476.8338 402.11453l0 0c3.1618347 1.52005 6.8144836 2.2095642 10.467529 1.9759827m4.784729 22.623291c1.5709534 -0.15014648 3.1107788 -0.46810913 4.579773 -0.9457092m39.53235 10.352051c-1.1049194 -1.3533936 -2.0299683 -2.799591 -2.7594604 -4.313965m52.66095 -1.7627258l0 0c0.5700073 -1.541626 0.93933105 -3.1283264 1.1018066 -4.7335815m35.460632 -11.654358c0.07385254 -7.5167847 -5.153076 -14.399231 -13.435791 -17.691101m31.67566 -18.860687c-1.3413696 2.5596008 -3.3890991 4.8302 -5.982666 6.633728m-8.480347 -31.138794l0 0c0.22857666 1.0336304 0.3343506 2.0827942 0.31585693 3.1329346m-35.378235 -10.806274l0 0c-1.2530518 1.2043152 -2.2853394 2.5500793 -3.0648193 3.995453m-27.419067 -1.6376648l0 0c-0.6677246 1.0938721 -1.1663818 2.2513428 -1.484375 3.4458008m-33.43756 0.9425049l0 0c1.949646 0.9326477 3.753357 2.0552063 5.37146 3.342987m-47.128174 19.386902l0 0c0.19839478 1.1907654 0.5118408 2.3668518 0.93740845 3.5172424" fill-rule="evenodd"/><path fill="#000000" d="m511.2798 396.76465l-1.640625 0l0 -10.453125q-0.59375 0.5625 -1.5625 1.140625q-0.953125 0.5625 -1.71875 0.84375l0 -1.59375q1.375 -0.640625 2.40625 -1.5625q1.03125 -0.921875 1.453125 -1.78125l1.0625 0l0 13.40625zm4.2038574 -6.59375q0 -2.359375 0.484375 -3.796875q0.484375 -1.453125 1.4375 -2.234375q0.96875 -0.78125 2.421875 -0.78125q1.078125 0 1.890625 0.4375q0.8125 0.421875 1.328125 1.25q0.53125 0.8125 0.828125 1.984375q0.3125 1.15625 0.3125 3.140625q0 2.359375 -0.484375 3.8125q-0.484375 1.4375 -1.453125 2.234375q-0.953125 0.78125 -2.421875 0.78125q-1.921875 0 -3.03125 -1.390625q-1.3125 -1.671875 -1.3125 -5.4375zm1.671875 0q0 3.296875 0.765625 4.390625q0.78125 1.078125 1.90625 1.078125q1.140625 0 1.90625 -1.09375q0.765625 -1.09375 0.765625 -4.375q0 -3.296875 -0.765625 -4.375q-0.765625 -1.078125 -1.921875 -1.078125q-1.125 0 -1.796875 0.953125q-0.859375 1.21875 -0.859375 4.5zm9.610107 6.59375l0 -1.875l1.875 0l0 1.875l-1.875 0zm4.2770386 -6.59375q0 -2.359375 0.484375 -3.796875q0.484375 -1.453125 1.4375 -2.234375q0.96875 -0.78125 2.421875 -0.78125q1.078125 0 1.890625 0.4375q0.8125 0.421875 1.328125 1.25q0.53125 0.8125 0.828125 1.984375q0.3125 1.15625 0.3125 3.140625q0 2.359375 -0.484375 3.8125q-0.484375 1.4375 -1.453125 2.234375q-0.953125 0.78125 -2.421875 0.78125q-1.921875 0 -3.03125 -1.390625q-1.3125 -1.671875 -1.3125 -5.4375zm1.671875 0q0 3.296875 0.765625 4.390625q0.78125 1.078125 1.90625 1.078125q1.140625 0 1.90625 -1.09375q0.765625 -1.09375 0.765625 -4.375q0 -3.296875 -0.765625 -4.375q-0.765625 -1.078125 -1.921875 -1.078125q-1.125 0 -1.796875 0.953125q-0.859375 1.21875 -0.859375 4.5zm9.610107 6.59375l0 -1.875l1.875 0l0 1.875l-1.875 0zm12.886414 -1.578125l0 1.578125l-8.828125 0q-0.015625 -0.59375 0.1875 -1.140625q0.34375 -0.90625 1.078125 -1.78125q0.75 -0.875 2.15625 -2.015625q2.171875 -1.78125 2.9375 -2.828125q0.765625 -1.046875 0.765625 -1.96875q0 -0.984375 -0.703125 -1.640625q-0.6875 -0.671875 -1.8125 -0.671875q-1.1875 0 -1.90625 0.71875q-0.703125 0.703125 -0.703125 1.953125l-1.6875 -0.171875q0.171875 -1.890625 1.296875 -2.875q1.140625 -0.984375 3.03125 -0.984375q1.921875 0 3.046875 1.0625q1.125 1.0625 1.125 2.640625q0 0.796875 -0.328125 1.578125q-0.328125 0.78125 -1.09375 1.640625q-0.75 0.84375 -2.53125 2.34375q-1.46875 1.234375 -1.890625 1.6875q-0.421875 0.4375 -0.6875 0.875l6.546875 0zm2.6726074 1.578125l0 -1.875l1.875 0l0 1.875l-1.875 0zm4.2770386 -6.59375q0 -2.359375 0.484375 -3.796875q0.484375 -1.453125 1.4375 -2.234375q0.96875 -0.78125 2.421875 -0.78125q1.078125 0 1.890625 0.4375q0.8125 0.421875 1.328125 1.25q0.53125 0.8125 0.828125 1.984375q0.3125 1.15625 0.3125 3.140625q0 2.359375 -0.484375 3.8125q-0.484375 1.4375 -1.453125 2.234375q-0.953125 0.78125 -2.421875 0.78125q-1.921875 0 -3.03125 -1.390625q-1.3125 -1.671875 -1.3125 -5.4375zm1.671875 0q0 3.296875 0.765625 4.390625q0.78125 1.078125 1.90625 1.078125q1.140625 0 1.90625 -1.09375q0.765625 -1.09375 0.765625 -4.375q0 -3.296875 -0.765625 -4.375q-0.765625 -1.078125 -1.921875 -1.078125q-1.125 0 -1.796875 0.953125q-0.859375 1.21875 -0.859375 4.5zm7.9226074 6.828125l3.875 -13.8125l1.3125 0l-3.859375 13.8125l-1.328125 0zm14.573914 -1.8125l0 1.578125l-8.828125 0q-0.015625 -0.59375 0.1875 -1.140625q0.34375 -0.90625 1.078125 -1.78125q0.75 -0.875 2.15625 -2.015625q2.171875 -1.78125 2.9375 -2.828125q0.765625 -1.046875 0.765625 -1.96875q0 -0.984375 -0.703125 -1.640625q-0.6875 -0.671875 -1.8125 -0.671875q-1.1875 0 -1.90625 0.71875q-0.703125 0.703125 -0.703125 1.953125l-1.6875 -0.171875q0.171875 -1.890625 1.296875 -2.875q1.140625 -0.984375 3.03125 -0.984375q1.921875 0 3.046875 1.0625q1.125 1.0625 1.125 2.640625q0 0.796875 -0.328125 1.578125q-0.328125 0.78125 -1.09375 1.640625q-0.75 0.84375 -2.53125 2.34375q-1.46875 1.234375 -1.890625 1.6875q-0.421875 0.4375 -0.6875 0.875l6.546875 0zm7.0163574 1.578125l0 -3.203125l-5.796875 0l0 -1.5l6.09375 -8.65625l1.34375 0l0 8.65625l1.796875 0l0 1.5l-1.796875 0l0 3.203125l-1.640625 0zm0 -4.703125l0 -6.015625l-4.1875 6.015625l4.1875 0z" fill-rule="nonzero"/><path fill="#000000" fill-opacity="0.0" d="m557.35535 302.0l0 42.897644" fill-rule="evenodd"/><path stroke="#595959" stroke-width="1.0" stroke-linejoin="round" stroke-linecap="butt" d="m557.35535 302.0l0 42.897644" fill-rule="evenodd"/><path fill="#d9d2e9" d="m747.8987 231.92126l158.67719 0l0 70.078735l-158.67719 0z" fill-rule="evenodd"/><path stroke="#595959" stroke-width="1.0" stroke-linejoin="round" stroke-linecap="butt" d="m747.8987 231.92126l158.67719 0l0 70.078735l-158.67719 0z" fill-rule="evenodd"/><path fill="#000000" d="m799.4241 273.8806l0 -9.671875l1.46875 0l0 1.46875q0.5625 -1.03125 1.03125 -1.359375q0.484375 -0.328125 1.0625 -0.328125q0.828125 0 1.6875 0.53125l-0.5625 1.515625q-0.609375 -0.359375 -1.203125 -0.359375q-0.546875 0 -0.96875 0.328125q-0.421875 0.328125 -0.609375 0.890625q-0.28125 0.875 -0.28125 1.921875l0 5.0625l-1.625 0zm12.8532715 -3.109375l1.6875 0.203125q-0.40625 1.484375 -1.484375 2.3125q-1.078125 0.8125 -2.765625 0.8125q-2.125 0 -3.375 -1.296875q-1.234375 -1.3125 -1.234375 -3.671875q0 -2.453125 1.25 -3.796875q1.265625 -1.34375 3.265625 -1.34375q1.9375 0 3.15625 1.328125q1.234375 1.3125 1.234375 3.703125q0 0.15625 0 0.4375l-7.21875 0q0.09375 1.59375 0.90625 2.453125q0.8125 0.84375 2.015625 0.84375q0.90625 0 1.546875 -0.46875q0.640625 -0.484375 1.015625 -1.515625zm-5.390625 -2.65625l5.40625 0q-0.109375 -1.21875 -0.625 -1.828125q-0.78125 -0.953125 -2.03125 -0.953125q-1.125 0 -1.90625 0.765625q-0.765625 0.75 -0.84375 2.015625zm9.141357 5.765625l0 -9.671875l1.46875 0l0 1.359375q0.453125 -0.71875 1.203125 -1.140625q0.765625 -0.4375 1.71875 -0.4375q1.078125 0 1.765625 0.453125q0.6875 0.4375 0.96875 1.234375q1.15625 -1.6875 2.984375 -1.6875q1.453125 0 2.21875 0.796875q0.78125 0.796875 0.78125 2.453125l0 6.640625l-1.640625 0l0 -6.09375q0 -0.984375 -0.15625 -1.40625q-0.15625 -0.4375 -0.578125 -0.703125q-0.421875 -0.265625 -0.984375 -0.265625q-1.015625 0 -1.6875 0.6875q-0.671875 0.671875 -0.671875 2.15625l0 5.625l-1.640625 0l0 -6.28125q0 -1.09375 -0.40625 -1.640625q-0.40625 -0.546875 -1.3125 -0.546875q-0.6875 0 -1.28125 0.359375q-0.59375 0.359375 -0.859375 1.0625q-0.25 0.703125 -0.25 2.03125l0 5.015625l-1.640625 0zm14.9313965 -4.84375q0 -2.6875 1.484375 -3.96875q1.25 -1.078125 3.046875 -1.078125q2.0 0 3.265625 1.3125q1.265625 1.296875 1.265625 3.609375q0 1.859375 -0.5625 2.9375q-0.5625 1.0625 -1.640625 1.65625q-1.0625 0.59375 -2.328125 0.59375q-2.03125 0 -3.28125 -1.296875q-1.25 -1.3125 -1.25 -3.765625zm1.6875 0q0 1.859375 0.796875 2.796875q0.8125 0.921875 2.046875 0.921875q1.21875 0 2.03125 -0.921875q0.8125 -0.9375 0.8125 -2.84375q0 -1.796875 -0.8125 -2.71875q-0.8125 -0.921875 -2.03125 -0.921875q-1.234375 0 -2.046875 0.921875q-0.796875 0.90625 -0.796875 2.765625zm12.875732 3.375l0.234375 1.453125q-0.6875 0.140625 -1.234375 0.140625q-0.890625 0 -1.390625 -0.28125q-0.484375 -0.28125 -0.6875 -0.734375q-0.203125 -0.46875 -0.203125 -1.9375l0 -5.578125l-1.203125 0l0 -1.265625l1.203125 0l0 -2.390625l1.625 -0.984375l0 3.375l1.65625 0l0 1.265625l-1.65625 0l0 5.671875q0 0.6875 0.078125 0.890625q0.09375 0.203125 0.28125 0.328125q0.203125 0.109375 0.578125 0.109375q0.265625 0 0.71875 -0.0625zm8.230164 -1.640625l1.6875 0.203125q-0.40625 1.484375 -1.484375 2.3125q-1.078125 0.8125 -2.765625 0.8125q-2.125 0 -3.375 -1.296875q-1.234375 -1.3125 -1.234375 -3.671875q0 -2.453125 1.25 -3.796875q1.265625 -1.34375 3.265625 -1.34375q1.9375 0 3.15625 1.328125q1.234375 1.3125 1.234375 3.703125q0 0.15625 0 0.4375l-7.21875 0q0.09375 1.59375 0.90625 2.453125q0.8125 0.84375 2.015625 0.84375q0.90625 0 1.546875 -0.46875q0.640625 -0.484375 1.015625 -1.515625zm-5.390625 -2.65625l5.40625 0q-0.109375 -1.21875 -0.625 -1.828125q-0.78125 -0.953125 -2.03125 -0.953125q-1.125 0 -1.90625 0.765625q-0.765625 0.75 -0.84375 2.015625z" fill-rule="nonzero"/><path fill="#000000" fill-opacity="0.0" d="m556.9581 162.997l0 34.794357l270.2677 0l0 34.11902" fill-rule="evenodd"/><path stroke="#595959" stroke-width="1.0" stroke-linejoin="round" stroke-linecap="butt" d="m556.9581 162.997l0 34.794357l270.2677 0l0 34.11902" fill-rule="evenodd"/><path fill="#000000" fill-opacity="0.0" d="m181.2231 188.81364l50.23622 0l0 49.858276l-50.23622 0z" fill-rule="evenodd"/><path fill="#595959" d="m192.4106 220.85365l0 -2.40625l2.390625 0l0 2.40625l-2.390625 0zm16.558594 -2.03125l0 2.03125l-11.34375 0q-0.03125 -0.765625 0.234375 -1.46875q0.4375 -1.15625 1.390625 -2.28125q0.953125 -1.125 2.765625 -2.609375q2.796875 -2.296875 3.78125 -3.625q0.984375 -1.34375 0.984375 -2.546875q0 -1.25 -0.90625 -2.109375q-0.890625 -0.859375 -2.328125 -0.859375q-1.515625 0 -2.4375 0.921875q-0.90625 0.90625 -0.921875 2.515625l-2.171875 -0.21875q0.21875 -2.421875 1.671875 -3.6875q1.453125 -1.28125 3.90625 -1.28125q2.46875 0 3.90625 1.375q1.453125 1.359375 1.453125 3.390625q0 1.03125 -0.421875 2.03125q-0.421875 1.0 -1.40625 2.109375q-0.96875 1.09375 -3.25 3.015625q-1.890625 1.59375 -2.4375 2.15625q-0.53125 0.5625 -0.890625 1.140625l8.421875 0z" fill-rule="nonzero"/><path fill="#000000" fill-opacity="0.0" d="m556.95276 188.81364l50.236206 0l0 49.858276l-50.236206 0z" fill-rule="evenodd"/><path fill="#595959" d="m568.14026 220.85365l0 -2.40625l2.390625 0l0 2.40625l-2.390625 0zm5.4960938 -4.53125l2.109375 -0.28125q0.359375 1.78125 1.234375 2.578125q0.875 0.796875 2.125 0.796875q1.484375 0 2.5 -1.03125q1.03125 -1.03125 1.03125 -2.5625q0 -1.453125 -0.953125 -2.390625q-0.9375 -0.953125 -2.40625 -0.953125q-0.59375 0 -1.484375 0.234375l0.234375 -1.84375q0.203125 0.015625 0.34375 0.015625q1.34375 0 2.421875 -0.703125q1.078125 -0.703125 1.078125 -2.15625q0 -1.171875 -0.796875 -1.921875q-0.78125 -0.765625 -2.015625 -0.765625q-1.234375 0 -2.0625 0.78125q-0.8125 0.765625 -1.046875 2.3125l-2.109375 -0.375q0.390625 -2.125 1.75 -3.28125q1.375 -1.171875 3.421875 -1.171875q1.40625 0 2.578125 0.609375q1.1875 0.59375 1.8125 1.640625q0.640625 1.046875 0.640625 2.21875q0 1.109375 -0.609375 2.03125q-0.59375 0.90625 -1.765625 1.4375q1.53125 0.359375 2.375 1.46875q0.84375 1.109375 0.84375 2.765625q0 2.25 -1.640625 3.828125q-1.640625 1.5625 -4.15625 1.5625q-2.265625 0 -3.765625 -1.34375q-1.484375 -1.359375 -1.6875 -3.5z" fill-rule="nonzero"/><path fill="#000000" fill-opacity="0.0" d="m827.2257 188.81364l50.236206 0l0 49.858276l-50.236206 0z" fill-rule="evenodd"/><path fill="#595959" d="m838.4132 220.85365l0 -2.40625l2.390625 0l0 2.40625l-2.390625 0zm12.246094 0l0 -4.109375l-7.453125 0l0 -1.9375l7.828125 -11.140625l1.734375 0l0 11.140625l2.3125 0l0 1.9375l-2.3125 0l0 4.109375l-2.109375 0zm0 -6.046875l0 -7.75l-5.390625 7.75l5.390625 0z" fill-rule="nonzero"/><path fill="#000000" fill-opacity="0.0" d="m181.28922 290.51968l50.23622 0l0 49.858276l-50.23622 0z" fill-rule="evenodd"/><path fill="#595959" d="m192.47672 322.5597l0 -2.40625l2.390625 0l0 2.40625l-2.390625 0zm16.558594 -2.03125l0 2.03125l-11.34375 0q-0.03125 -0.765625 0.234375 -1.46875q0.4375 -1.15625 1.390625 -2.28125q0.953125 -1.125 2.765625 -2.609375q2.796875 -2.296875 3.78125 -3.625q0.984375 -1.34375 0.984375 -2.546875q0 -1.25 -0.90625 -2.109375q-0.890625 -0.859375 -2.328125 -0.859375q-1.515625 0 -2.4375 0.921875q-0.90625 0.90625 -0.921875 2.515625l-2.171875 -0.21875q0.21875 -2.421875 1.671875 -3.6875q1.453125 -1.28125 3.90625 -1.28125q2.46875 0 3.90625 1.375q1.453125 1.359375 1.453125 3.390625q0 1.03125 -0.421875 2.03125q-0.421875 1.0 -1.40625 2.109375q-0.96875 1.09375 -3.25 3.015625q-1.890625 1.59375 -2.4375 2.15625q-0.53125 0.5625 -0.890625 1.140625l8.421875 0z" fill-rule="nonzero"/><path fill="#000000" fill-opacity="0.0" d="m556.9522 290.04355l50.236206 0l0 49.858276l-50.236206 0z" fill-rule="evenodd"/><path fill="#595959" d="m568.1397 322.08356l0 -2.40625l2.390625 0l0 2.40625l-2.390625 0zm16.558594 -2.03125l0 2.03125l-11.34375 0q-0.03125 -0.765625 0.234375 -1.46875q0.4375 -1.15625 1.390625 -2.28125q0.953125 -1.125 2.765625 -2.609375q2.796875 -2.296875 3.78125 -3.625q0.984375 -1.34375 0.984375 -2.546875q0 -1.25 -0.90625 -2.109375q-0.890625 -0.859375 -2.328125 -0.859375q-1.515625 0 -2.4375 0.921875q-0.90625 0.90625 -0.921875 2.515625l-2.171875 -0.21875q0.21875 -2.421875 1.671875 -3.6875q1.453125 -1.28125 3.90625 -1.28125q2.46875 0 3.90625 1.375q1.453125 1.359375 1.453125 3.390625q0 1.03125 -0.421875 2.03125q-0.421875 1.0 -1.40625 2.109375q-0.96875 1.09375 -3.25 3.015625q-1.890625 1.59375 -2.4375 2.15625q-0.53125 0.5625 -0.890625 1.140625l8.421875 0z" fill-rule="nonzero"/><path fill="#d9ead3" d="m2.3149607 490.14172l158.67717 0l0 49.858276l-158.67717 0z" fill-rule="evenodd"/><path stroke="#595959" stroke-width="1.0" stroke-linejoin="round" stroke-linecap="butt" d="m2.3149607 490.14172l158.67717 0l0 49.858276l-158.67717 0z" fill-rule="evenodd"/><path fill="#000000" d="m25.329563 521.99084l0 -9.671875l1.46875 0l0 1.359375q0.453125 -0.71875 1.203125 -1.140625q0.765625 -0.4375 1.71875 -0.4375q1.078125 0 1.765625 0.453125q0.6875 0.4375 0.96875 1.234375q1.15625 -1.6875 2.984375 -1.6875q1.453125 0 2.21875 0.796875q0.78125 0.796875 0.78125 2.453125l0 6.640625l-1.640625 0l0 -6.09375q0 -0.984375 -0.15625 -1.40625q-0.15625 -0.4375 -0.578125 -0.703125q-0.421875 -0.265625 -0.984375 -0.265625q-1.015625 0 -1.6875 0.6875q-0.671875 0.671875 -0.671875 2.15625l0 5.625l-1.640625 0l0 -6.28125q0 -1.09375 -0.40625 -1.640625q-0.40625 -0.546875 -1.3125 -0.546875q-0.6875 0 -1.28125 0.359375q-0.59375 0.359375 -0.859375 1.0625q-0.25 0.703125 -0.25 2.03125l0 5.015625l-1.640625 0zm21.853302 -1.1875q-0.921875 0.765625 -1.765625 1.09375q-0.828125 0.3125 -1.796875 0.3125q-1.59375 0 -2.453125 -0.78125q-0.859375 -0.78125 -0.859375 -1.984375q0 -0.71875 0.328125 -1.296875q0.328125 -0.59375 0.84375 -0.9375q0.53125 -0.359375 1.1875 -0.546875q0.46875 -0.125 1.453125 -0.25q1.984375 -0.234375 2.921875 -0.5625q0.015625 -0.34375 0.015625 -0.421875q0 -1.0 -0.46875 -1.421875q-0.625 -0.546875 -1.875 -0.546875q-1.15625 0 -1.703125 0.40625q-0.546875 0.40625 -0.8125 1.421875l-1.609375 -0.21875q0.21875 -1.015625 0.71875 -1.640625q0.5 -0.640625 1.453125 -0.984375q0.953125 -0.34375 2.1875 -0.34375q1.25 0 2.015625 0.296875q0.78125 0.28125 1.140625 0.734375q0.375 0.4375 0.515625 1.109375q0.078125 0.421875 0.078125 1.515625l0 2.1875q0 2.28125 0.109375 2.890625q0.109375 0.59375 0.40625 1.15625l-1.703125 0q-0.265625 -0.515625 -0.328125 -1.1875zm-0.140625 -3.671875q-0.890625 0.375 -2.671875 0.625q-1.015625 0.140625 -1.4375 0.328125q-0.421875 0.1875 -0.65625 0.53125q-0.21875 0.34375 -0.21875 0.78125q0 0.65625 0.5 1.09375q0.5 0.4375 1.453125 0.4375q0.9375 0 1.671875 -0.40625q0.75 -0.421875 1.09375 -1.140625q0.265625 -0.5625 0.265625 -1.640625l0 -0.609375zm4.203842 -6.6093445l0 -1.890625l1.640625 0l0 1.890625l-1.640625 0zm0 11.4687195l0 -9.671875l1.640625 0l0 9.671875l-1.640625 0zm4.144821 0l0 -9.671875l1.46875 0l0 1.375q1.0625 -1.59375 3.078125 -1.59375q0.875 0 1.609375 0.3125q0.734375 0.3125 1.09375 0.828125q0.375 0.5 0.515625 1.203125q0.09375 0.453125 0.09375 1.59375l0 5.953125l-1.640625 0l0 -5.890625q0 -1.0 -0.203125 -1.484375q-0.1875 -0.5 -0.671875 -0.796875q-0.484375 -0.296875 -1.140625 -0.296875q-1.046875 0 -1.8125 0.671875q-0.75 0.65625 -0.75 2.515625l0 5.28125l-1.640625 0zm8.860096 3.703125l0 -1.1875l10.859375 0l0 1.1875l-10.859375 0zm18.203842 -7.25l1.609375 0.21875q-0.265625 1.65625 -1.359375 2.609375q-1.078125 0.9375 -2.671875 0.9375q-1.984375 0 -3.1875 -1.296875q-1.203125 -1.296875 -1.203125 -3.71875q0 -1.578125 0.515625 -2.75q0.515625 -1.171875 1.578125 -1.75q1.0625 -0.59375 2.3125 -0.59375q1.578125 0 2.578125 0.796875q1.0 0.796875 1.28125 2.265625l-1.59375 0.234375q-0.234375 -0.96875 -0.8125 -1.453125q-0.578125 -0.5 -1.390625 -0.5q-1.234375 0 -2.015625 0.890625q-0.78125 0.890625 -0.78125 2.8125q0 1.953125 0.75 2.84375q0.75 0.875 1.953125 0.875q0.96875 0 1.609375 -0.59375q0.65625 -0.59375 0.828125 -1.828125zm2.96875 3.546875l0 -13.3593445l1.640625 0l0 13.3593445l-1.640625 0zm4.191696 -11.4687195l0 -1.890625l1.640625 0l0 1.890625l-1.640625 0zm0 11.4687195l0 -9.671875l1.640625 0l0 9.671875l-1.640625 0zm10.769821 -3.109375l1.6875 0.203125q-0.40625 1.484375 -1.484375 2.3125q-1.078125 0.8125 -2.765625 0.8125q-2.125 0 -3.375 -1.296875q-1.234375 -1.3125 -1.234375 -3.671875q0 -2.453125 1.25 -3.796875q1.265625 -1.34375 3.265625 -1.34375q1.9375 0 3.15625 1.328125q1.234375 1.3125 1.234375 3.703125q0 0.15625 0 0.4375l-7.21875 0q0.09375 1.59375 0.90625 2.453125q0.8125 0.84375 2.015625 0.84375q0.90625 0 1.546875 -0.46875q0.640625 -0.484375 1.015625 -1.515625zm-5.390625 -2.65625l5.40625 0q-0.109375 -1.21875 -0.625 -1.828125q-0.78125 -0.953125 -2.03125 -0.953125q-1.125 0 -1.90625 0.765625q-0.765625 0.75 -0.84375 2.015625zm9.141342 5.765625l0 -9.671875l1.46875 0l0 1.375q1.0625 -1.59375 3.078125 -1.59375q0.875 0 1.609375 0.3125q0.734375 0.3125 1.09375 0.828125q0.375 0.5 0.515625 1.203125q0.09375 0.453125 0.09375 1.59375l0 5.953125l-1.640625 0l0 -5.890625q0 -1.0 -0.203125 -1.484375q-0.1875 -0.5 -0.671875 -0.796875q-0.484375 -0.296875 -1.140625 -0.296875q-1.046875 0 -1.8125 0.671875q-0.75 0.65625 -0.75 2.515625l0 5.28125l-1.640625 0zm13.953842 -1.46875l0.234375 1.453125q-0.6875 0.140625 -1.234375 0.140625q-0.890625 0 -1.390625 -0.28125q-0.484375 -0.28125 -0.6875 -0.734375q-0.203125 -0.46875 -0.203125 -1.9375l0 -5.578125l-1.203125 0l0 -1.265625l1.203125 0l0 -2.3905945l1.625 -0.984375l0 3.3749695l1.65625 0l0 1.265625l-1.65625 0l0 5.671875q0 0.6875 0.078125 0.890625q0.09375 0.203125 0.28125 0.328125q0.203125 0.109375 0.578125 0.109375q0.265625 0 0.71875 -0.0625zm0.08955383 5.171875l0 -1.1875l10.859367 0l0 1.1875l-10.859367 0zm17.610085 -3.703125l-1.640625 0l0 -10.4530945q-0.59375 0.5624695 -1.5625 1.1405945q-0.953125 0.5625 -1.71875 0.84375l0 -1.5937195q1.375 -0.640625 2.40625 -1.5625q1.03125 -0.921875 1.453125 -1.78125l1.0625 0l0 13.4062195z" fill-rule="nonzero"/><path fill="#d9ead3" d="m195.50394 490.14172l158.67715 0l0 49.858276l-158.67715 0z" fill-rule="evenodd"/><path stroke="#595959" stroke-width="1.0" stroke-linejoin="round" stroke-linecap="butt" d="m195.50394 490.14172l158.67715 0l0 49.858276l-158.67715 0z" fill-rule="evenodd"/><path fill="#000000" d="m218.51854 521.99084l0 -9.671875l1.46875 0l0 1.359375q0.453125 -0.71875 1.203125 -1.140625q0.765625 -0.4375 1.71875 -0.4375q1.078125 0 1.765625 0.453125q0.6875 0.4375 0.96875 1.234375q1.15625 -1.6875 2.984375 -1.6875q1.453125 0 2.21875 0.796875q0.78125 0.796875 0.78125 2.453125l0 6.640625l-1.640625 0l0 -6.09375q0 -0.984375 -0.15625 -1.40625q-0.15625 -0.4375 -0.578125 -0.703125q-0.421875 -0.265625 -0.984375 -0.265625q-1.015625 0 -1.6875 0.6875q-0.671875 0.671875 -0.671875 2.15625l0 5.625l-1.640625 0l0 -6.28125q0 -1.09375 -0.40625 -1.640625q-0.40625 -0.546875 -1.3125 -0.546875q-0.6875 0 -1.28125 0.359375q-0.59375 0.359375 -0.859375 1.0625q-0.25 0.703125 -0.25 2.03125l0 5.015625l-1.640625 0zm21.853302 -1.1875q-0.921875 0.765625 -1.765625 1.09375q-0.828125 0.3125 -1.796875 0.3125q-1.59375 0 -2.453125 -0.78125q-0.859375 -0.78125 -0.859375 -1.984375q0 -0.71875 0.328125 -1.296875q0.328125 -0.59375 0.84375 -0.9375q0.53125 -0.359375 1.1875 -0.546875q0.46875 -0.125 1.453125 -0.25q1.984375 -0.234375 2.921875 -0.5625q0.015625 -0.34375 0.015625 -0.421875q0 -1.0 -0.46875 -1.421875q-0.625 -0.546875 -1.875 -0.546875q-1.15625 0 -1.703125 0.40625q-0.546875 0.40625 -0.8125 1.421875l-1.609375 -0.21875q0.21875 -1.015625 0.71875 -1.640625q0.5 -0.640625 1.453125 -0.984375q0.953125 -0.34375 2.1875 -0.34375q1.25 0 2.015625 0.296875q0.78125 0.28125 1.140625 0.734375q0.375 0.4375 0.515625 1.109375q0.078125 0.421875 0.078125 1.515625l0 2.1875q0 2.28125 0.109375 2.890625q0.109375 0.59375 0.40625 1.15625l-1.703125 0q-0.265625 -0.515625 -0.328125 -1.1875zm-0.140625 -3.671875q-0.890625 0.375 -2.671875 0.625q-1.015625 0.140625 -1.4375 0.328125q-0.421875 0.1875 -0.65625 0.53125q-0.21875 0.34375 -0.21875 0.78125q0 0.65625 0.5 1.09375q0.5 0.4375 1.453125 0.4375q0.9375 0 1.671875 -0.40625q0.75 -0.421875 1.09375 -1.140625q0.265625 -0.5625 0.265625 -1.640625l0 -0.609375zm4.203842 -6.6093445l0 -1.890625l1.640625 0l0 1.890625l-1.640625 0zm0 11.4687195l0 -9.671875l1.640625 0l0 9.671875l-1.640625 0zm4.144821 0l0 -9.671875l1.46875 0l0 1.375q1.0625 -1.59375 3.078125 -1.59375q0.875 0 1.609375 0.3125q0.734375 0.3125 1.09375 0.828125q0.37501526 0.5 0.51564026 1.203125q0.09375 0.453125 0.09375 1.59375l0 5.953125l-1.6406403 0l0 -5.890625q0 -1.0 -0.203125 -1.484375q-0.1875 -0.5 -0.671875 -0.796875q-0.484375 -0.296875 -1.140625 -0.296875q-1.046875 0 -1.8125 0.671875q-0.75 0.65625 -0.75 2.515625l0 5.28125l-1.640625 0zm8.860092 3.703125l0 -1.1875l10.859375 0l0 1.1875l-10.859375 0zm18.203857 -7.25l1.609375 0.21875q-0.265625 1.65625 -1.359375 2.609375q-1.078125 0.9375 -2.671875 0.9375q-1.984375 0 -3.1875 -1.296875q-1.203125 -1.296875 -1.203125 -3.71875q0 -1.578125 0.515625 -2.75q0.515625 -1.171875 1.578125 -1.75q1.0625 -0.59375 2.3125 -0.59375q1.578125 0 2.578125 0.796875q1.0 0.796875 1.28125 2.265625l-1.59375 0.234375q-0.234375 -0.96875 -0.8125 -1.453125q-0.578125 -0.5 -1.390625 -0.5q-1.234375 0 -2.015625 0.890625q-0.78125 0.890625 -0.78125 2.8125q0 1.953125 0.75 2.84375q0.75 0.875 1.953125 0.875q0.96875 0 1.609375 -0.59375q0.65625 -0.59375 0.828125 -1.828125zm2.96875 3.546875l0 -13.3593445l1.640625 0l0 13.3593445l-1.640625 0zm4.191681 -11.4687195l0 -1.890625l1.640625 0l0 1.890625l-1.640625 0zm0 11.4687195l0 -9.671875l1.640625 0l0 9.671875l-1.640625 0zm10.769836 -3.109375l1.6875 0.203125q-0.40625 1.484375 -1.484375 2.3125q-1.078125 0.8125 -2.765625 0.8125q-2.125 0 -3.375 -1.296875q-1.234375 -1.3125 -1.234375 -3.671875q0 -2.453125 1.25 -3.796875q1.265625 -1.34375 3.265625 -1.34375q1.9375 0 3.15625 1.328125q1.234375 1.3125 1.234375 3.703125q0 0.15625 0 0.4375l-7.21875 0q0.09375 1.59375 0.90625 2.453125q0.8125 0.84375 2.015625 0.84375q0.90625 0 1.546875 -0.46875q0.640625 -0.484375 1.015625 -1.515625zm-5.390625 -2.65625l5.40625 0q-0.109375 -1.21875 -0.625 -1.828125q-0.78125 -0.953125 -2.03125 -0.953125q-1.125 0 -1.90625 0.765625q-0.765625 0.75 -0.84375 2.015625zm9.141327 5.765625l0 -9.671875l1.46875 0l0 1.375q1.0625 -1.59375 3.078125 -1.59375q0.875 0 1.609375 0.3125q0.734375 0.3125 1.09375 0.828125q0.375 0.5 0.515625 1.203125q0.09375 0.453125 0.09375 1.59375l0 5.953125l-1.640625 0l0 -5.890625q0 -1.0 -0.203125 -1.484375q-0.1875 -0.5 -0.671875 -0.796875q-0.484375 -0.296875 -1.140625 -0.296875q-1.046875 0 -1.8125 0.671875q-0.75 0.65625 -0.75 2.515625l0 5.28125l-1.640625 0zm13.953857 -1.46875l0.234375 1.453125q-0.6875 0.140625 -1.234375 0.140625q-0.890625 0 -1.390625 -0.28125q-0.484375 -0.28125 -0.6875 -0.734375q-0.203125 -0.46875 -0.203125 -1.9375l0 -5.578125l-1.203125 0l0 -1.265625l1.203125 0l0 -2.3905945l1.625 -0.984375l0 3.3749695l1.65625 0l0 1.265625l-1.65625 0l0 5.671875q0 0.6875 0.078125 0.890625q0.09375 0.203125 0.28125 0.328125q0.203125 0.109375 0.578125 0.109375q0.265625 0 0.71875 -0.0625zm0.089538574 5.171875l0 -1.1875l10.859375 0l0 1.1875l-10.859375 0zm20.047607 -5.28125l0 1.578125l-8.828125 0q-0.015625 -0.59375 0.1875 -1.140625q0.34375 -0.90625 1.078125 -1.78125q0.75 -0.875 2.15625 -2.015625q2.171875 -1.78125 2.9375 -2.828125q0.765625 -1.046875 0.765625 -1.96875q0 -0.9843445 -0.703125 -1.6405945q-0.6875 -0.671875 -1.8125 -0.671875q-1.1875 0 -1.90625 0.71875q-0.703125 0.703125 -0.703125 1.9530945l-1.6875 -0.171875q0.171875 -1.8905945 1.296875 -2.8749695q1.140625 -0.984375 3.03125 -0.984375q1.921875 0 3.046875 1.0625q1.125 1.0625 1.125 2.6405945q0 0.796875 -0.328125 1.578125q-0.328125 0.78125 -1.09375 1.640625q-0.75 0.84375 -2.53125 2.34375q-1.46875 1.234375 -1.890625 1.6875q-0.421875 0.4375 -0.6875 0.875l6.546875 0z" fill-rule="nonzero"/><path fill="#000000" fill-opacity="0.0" d="m556.9581 162.997l0 34.794357l0.40942383 0l0 34.11902" fill-rule="evenodd"/><path stroke="#595959" stroke-width="1.0" stroke-linejoin="round" stroke-linecap="butt" d="m556.9581 162.997l0 34.794357l0.40942383 0l0 34.11902" fill-rule="evenodd"/><path fill="#000000" fill-opacity="0.0" d="m183.47255 445.7645l0 22.441925l-101.826775 0l0 21.936005" fill-rule="evenodd"/><path stroke="#595959" stroke-width="1.0" stroke-linejoin="round" stroke-linecap="butt" d="m183.47255 445.7645l0 22.441925l-101.826775 0l0 21.936005" fill-rule="evenodd"/><path fill="#000000" fill-opacity="0.0" d="m183.47255 445.7645l0 22.441925l91.37007 0l0 21.936005" fill-rule="evenodd"/><path stroke="#595959" stroke-width="1.0" stroke-linejoin="round" stroke-linecap="butt" d="m183.47255 445.7645l0 22.441925l91.37007 0l0 21.936005" fill-rule="evenodd"/><path fill="#000000" fill-opacity="0.0" d="m274.84238 451.02362l64.97638 0l0 49.858276l-64.97638 0z" fill-rule="evenodd"/><path fill="#595959" d="m286.02988 483.06363l0 -2.40625l2.390625 0l0 2.40625l-2.390625 0zm13.417969 0l-2.109375 0l0 -13.4375q-0.75 0.71875 -2.0 1.453125q-1.234375 0.71875 -2.21875 1.078125l0 -2.03125q1.78125 -0.828125 3.09375 -2.015625q1.328125 -1.1875 1.875 -2.296875l1.359375 0l0 17.25zm11.566406 0l-2.109375 0l0 -13.4375q-0.75 0.71875 -2.0 1.453125q-1.234375 0.71875 -2.21875 1.078125l0 -2.03125q1.78125 -0.828125 3.09375 -2.015625q1.328125 -1.1875 1.875 -2.296875l1.359375 0l0 17.25z" fill-rule="nonzero"/><path fill="#000000" fill-opacity="0.0" d="m32.669144 451.02362l64.97638 0l0 49.858276l-64.97638 0z" fill-rule="evenodd"/><path fill="#595959" d="m43.856644 483.06363l0 -2.40625l2.390625 0l0 2.40625l-2.390625 0zm13.417969 0l-2.109375 0l0 -13.4375q-0.75 0.71875 -2.0 1.453125q-1.234375 0.71875 -2.21875 1.078125l0 -2.03125q1.78125 -0.828125 3.09375 -2.015625q1.328125 -1.1875 1.875 -2.296875l1.359375 0l0 17.25zm5.4101562 -8.46875q0 -3.046875 0.625 -4.90625q0.625 -1.859375 1.859375 -2.859375q1.234375 -1.015625 3.109375 -1.015625q1.390625 0 2.421875 0.5625q1.046875 0.546875 1.71875 1.59375q0.6875 1.046875 1.078125 2.5625q0.390625 1.5 0.390625 4.0625q0 3.015625 -0.625 4.875q-0.625 1.859375 -1.859375 2.875q-1.234375 1.015625 -3.125 1.015625q-2.484375 0 -3.890625 -1.78125q-1.703125 -2.15625 -1.703125 -6.984375zm2.171875 0q0 4.21875 0.984375 5.625q0.984375 1.40625 2.4375 1.40625q1.453125 0 2.4375 -1.40625q1.0 -1.40625 1.0 -5.625q0 -4.25 -1.0 -5.640625q-0.984375 -1.390625 -2.453125 -1.390625q-1.453125 0 -2.328125 1.21875q-1.078125 1.578125 -1.078125 5.8125z" fill-rule="nonzero"/><path fill="#c9daf8" d="m384.72598 490.14172l158.67715 0l0 49.858276l-158.67715 0z" fill-rule="evenodd"/><path stroke="#595959" stroke-width="1.0" stroke-linejoin="round" stroke-linecap="butt" d="m384.72598 490.14172l158.67715 0l0 49.858276l-158.67715 0z" fill-rule="evenodd"/><path fill="#000000" d="m417.46387 521.99084l0 -8.40625l-1.453125 0l0 -1.265625l1.453125 0l0 -1.0312195q0 -0.96875 0.171875 -1.453125q0.234375 -0.640625 0.828125 -1.03125q0.59375 -0.390625 1.671875 -0.390625q0.6875 0 1.53125 0.15625l-0.25 1.4375q-0.5 -0.09375 -0.953125 -0.09375q-0.75 0 -1.0625 0.328125q-0.3125 0.3125 -0.3125 1.1875l0 0.8905945l1.890625 0l0 1.265625l-1.890625 0l0 8.40625l-1.625 0zm11.105194 -1.1875q-0.921875 0.765625 -1.765625 1.09375q-0.828125 0.3125 -1.796875 0.3125q-1.59375 0 -2.453125 -0.78125q-0.859375 -0.78125 -0.859375 -1.984375q0 -0.71875 0.328125 -1.296875q0.328125 -0.59375 0.84375 -0.9375q0.53125 -0.359375 1.1875 -0.546875q0.46875 -0.125 1.453125 -0.25q1.984375 -0.234375 2.921875 -0.5625q0.015625 -0.34375 0.015625 -0.421875q0 -1.0 -0.46875 -1.421875q-0.625 -0.546875 -1.875 -0.546875q-1.15625 0 -1.703125 0.40625q-0.546875 0.40625 -0.8125 1.421875l-1.609375 -0.21875q0.21875 -1.015625 0.71875 -1.640625q0.5 -0.640625 1.453125 -0.984375q0.953125 -0.34375 2.1875 -0.34375q1.25 0 2.015625 0.296875q0.78125 0.28125 1.140625 0.734375q0.375 0.4375 0.515625 1.109375q0.078125 0.421875 0.078125 1.515625l0 2.1875q0 2.28125 0.109375 2.890625q0.109375 0.59375 0.40625 1.15625l-1.703125 0q-0.265625 -0.515625 -0.328125 -1.1875zm-0.140625 -3.671875q-0.890625 0.375 -2.671875 0.625q-1.015625 0.140625 -1.4375 0.328125q-0.421875 0.1875 -0.65625 0.53125q-0.21875 0.34375 -0.21875 0.78125q0 0.65625 0.5 1.09375q0.5 0.4375 1.453125 0.4375q0.9375 0 1.671875 -0.40625q0.75 -0.421875 1.09375 -1.140625q0.265625 -0.5625 0.265625 -1.640625l0 -0.609375zm4.188202 4.859375l0 -9.671875l1.46875 0l0 1.46875q0.5625 -1.03125 1.03125 -1.359375q0.484375 -0.328125 1.0625 -0.328125q0.828125 0 1.6875 0.53125l-0.5625 1.515625q-0.609375 -0.359375 -1.203125 -0.359375q-0.546875 0 -0.96875 0.328125q-0.421875 0.328125 -0.609375 0.890625q-0.28125 0.875 -0.28125 1.921875l0 5.0625l-1.625 0zm4.712677 3.703125l0 -1.1875l10.859375 0l0 1.1875l-10.859375 0zm18.203857 -7.25l1.609375 0.21875q-0.265625 1.65625 -1.359375 2.609375q-1.078125 0.9375 -2.671875 0.9375q-1.984375 0 -3.1875 -1.296875q-1.203125 -1.296875 -1.203125 -3.71875q0 -1.578125 0.515625 -2.75q0.515625 -1.171875 1.578125 -1.75q1.0625 -0.59375 2.3125 -0.59375q1.578125 0 2.578125 0.796875q1.0 0.796875 1.28125 2.265625l-1.59375 0.234375q-0.234375 -0.96875 -0.8125 -1.453125q-0.578125 -0.5 -1.390625 -0.5q-1.234375 0 -2.015625 0.890625q-0.78125 0.890625 -0.78125 2.8125q0 1.953125 0.75 2.84375q0.75 0.875 1.953125 0.875q0.96875 0 1.609375 -0.59375q0.65625 -0.59375 0.828125 -1.828125zm2.96875 3.546875l0 -13.3593445l1.640625 0l0 13.3593445l-1.640625 0zm4.191681 -11.4687195l0 -1.890625l1.640625 0l0 1.890625l-1.640625 0zm0 11.4687195l0 -9.671875l1.640625 0l0 9.671875l-1.640625 0zm10.769836 -3.109375l1.6875 0.203125q-0.40625 1.484375 -1.484375 2.3125q-1.078125 0.8125 -2.765625 0.8125q-2.125 0 -3.375 -1.296875q-1.234375 -1.3125 -1.234375 -3.671875q0 -2.453125 1.25 -3.796875q1.265625 -1.34375 3.265625 -1.34375q1.9375 0 3.15625 1.328125q1.234375 1.3125 1.234375 3.703125q0 0.15625 0 0.4375l-7.21875 0q0.09375 1.59375 0.90625 2.453125q0.8125 0.84375 2.015625 0.84375q0.90625 0 1.546875 -0.46875q0.640625 -0.484375 1.015625 -1.515625zm-5.390625 -2.65625l5.40625 0q-0.109375 -1.21875 -0.625 -1.828125q-0.78125 -0.953125 -2.03125 -0.953125q-1.125 0 -1.90625 0.765625q-0.765625 0.75 -0.84375 2.015625zm9.141327 5.765625l0 -9.671875l1.46875 0l0 1.375q1.0625 -1.59375 3.078125 -1.59375q0.875 0 1.609375 0.3125q0.734375 0.3125 1.09375 0.828125q0.375 0.5 0.515625 1.203125q0.09375 0.453125 0.09375 1.59375l0 5.953125l-1.640625 0l0 -5.890625q0 -1.0 -0.203125 -1.484375q-0.1875 -0.5 -0.671875 -0.796875q-0.484375 -0.296875 -1.140625 -0.296875q-1.046875 0 -1.8125 0.671875q-0.75 0.65625 -0.75 2.515625l0 5.28125l-1.640625 0zm13.953857 -1.46875l0.234375 1.453125q-0.6875 0.140625 -1.234375 0.140625q-0.890625 0 -1.390625 -0.28125q-0.484375 -0.28125 -0.6875 -0.734375q-0.203125 -0.46875 -0.203125 -1.9375l0 -5.578125l-1.203125 0l0 -1.265625l1.203125 0l0 -2.3905945l1.625 -0.984375l0 3.3749695l1.65625 0l0 1.265625l-1.65625 0l0 5.671875q0 0.6875 0.078125 0.890625q0.09375 0.203125 0.28125 0.328125q0.203125 0.109375 0.578125 0.109375q0.265625 0 0.71875 -0.0625zm0.089538574 5.171875l0 -1.1875l10.859375 0l0 1.1875l-10.859375 0zm17.610107 -3.703125l-1.640625 0l0 -10.4530945q-0.59375 0.5624695 -1.5625 1.1405945q-0.953125 0.5625 -1.71875 0.84375l0 -1.5937195q1.375 -0.640625 2.40625 -1.5625q1.03125 -0.921875 1.453125 -1.78125l1.0625 0l0 13.4062195z" fill-rule="nonzero"/><path fill="#c9daf8" d="m577.9149 490.14172l158.67719 0l0 49.858276l-158.67719 0z" fill-rule="evenodd"/><path stroke="#595959" stroke-width="1.0" stroke-linejoin="round" stroke-linecap="butt" d="m577.9149 490.14172l158.67719 0l0 49.858276l-158.67719 0z" fill-rule="evenodd"/><path fill="#000000" d="m610.65283 521.99084l0 -8.40625l-1.453125 0l0 -1.265625l1.453125 0l0 -1.0312195q0 -0.96875 0.171875 -1.453125q0.234375 -0.640625 0.828125 -1.03125q0.59375 -0.390625 1.671875 -0.390625q0.6875 0 1.53125 0.15625l-0.25 1.4375q-0.5 -0.09375 -0.953125 -0.09375q-0.75 0 -1.0625 0.328125q-0.3125 0.3125 -0.3125 1.1875l0 0.8905945l1.890625 0l0 1.265625l-1.890625 0l0 8.40625l-1.625 0zm11.105225 -1.1875q-0.921875 0.765625 -1.765625 1.09375q-0.828125 0.3125 -1.796875 0.3125q-1.59375 0 -2.453125 -0.78125q-0.859375 -0.78125 -0.859375 -1.984375q0 -0.71875 0.328125 -1.296875q0.328125 -0.59375 0.84375 -0.9375q0.53125 -0.359375 1.1875 -0.546875q0.46875 -0.125 1.453125 -0.25q1.984375 -0.234375 2.921875 -0.5625q0.015625 -0.34375 0.015625 -0.421875q0 -1.0 -0.46875 -1.421875q-0.625 -0.546875 -1.875 -0.546875q-1.15625 0 -1.703125 0.40625q-0.546875 0.40625 -0.8125 1.421875l-1.609375 -0.21875q0.21875 -1.015625 0.71875 -1.640625q0.5 -0.640625 1.453125 -0.984375q0.953125 -0.34375 2.1875 -0.34375q1.25 0 2.015625 0.296875q0.78125 0.28125 1.140625 0.734375q0.375 0.4375 0.515625 1.109375q0.078125 0.421875 0.078125 1.515625l0 2.1875q0 2.28125 0.109375 2.890625q0.109375 0.59375 0.40625 1.15625l-1.703125 0q-0.265625 -0.515625 -0.328125 -1.1875zm-0.140625 -3.671875q-0.890625 0.375 -2.671875 0.625q-1.015625 0.140625 -1.4375 0.328125q-0.421875 0.1875 -0.65625 0.53125q-0.21875 0.34375 -0.21875 0.78125q0 0.65625 0.5 1.09375q0.5 0.4375 1.453125 0.4375q0.9375 0 1.671875 -0.40625q0.75 -0.421875 1.09375 -1.140625q0.265625 -0.5625 0.265625 -1.640625l0 -0.609375zm4.1881714 4.859375l0 -9.671875l1.46875 0l0 1.46875q0.5625 -1.03125 1.03125 -1.359375q0.484375 -0.328125 1.0625 -0.328125q0.828125 0 1.6875 0.53125l-0.5625 1.515625q-0.609375 -0.359375 -1.203125 -0.359375q-0.546875 0 -0.96875 0.328125q-0.421875 0.328125 -0.609375 0.890625q-0.28125 0.875 -0.28125 1.921875l0 5.0625l-1.625 0zm4.7127075 3.703125l0 -1.1875l10.859375 0l0 1.1875l-10.859375 0zm18.203857 -7.25l1.609375 0.21875q-0.265625 1.65625 -1.359375 2.609375q-1.078125 0.9375 -2.671875 0.9375q-1.984375 0 -3.1875 -1.296875q-1.203125 -1.296875 -1.203125 -3.71875q0 -1.578125 0.515625 -2.75q0.515625 -1.171875 1.578125 -1.75q1.0625 -0.59375 2.3125 -0.59375q1.578125 0 2.578125 0.796875q1.0 0.796875 1.28125 2.265625l-1.59375 0.234375q-0.234375 -0.96875 -0.8125 -1.453125q-0.578125 -0.5 -1.390625 -0.5q-1.234375 0 -2.015625 0.890625q-0.78125 0.890625 -0.78125 2.8125q0 1.953125 0.75 2.84375q0.75 0.875 1.953125 0.875q0.96875 0 1.609375 -0.59375q0.65625 -0.59375 0.828125 -1.828125zm2.96875 3.546875l0 -13.3593445l1.640625 0l0 13.3593445l-1.640625 0zm4.1916504 -11.4687195l0 -1.890625l1.640625 0l0 1.890625l-1.640625 0zm0 11.4687195l0 -9.671875l1.640625 0l0 9.671875l-1.640625 0zm10.769836 -3.109375l1.6875 0.203125q-0.40625 1.484375 -1.484375 2.3125q-1.078125 0.8125 -2.765625 0.8125q-2.125 0 -3.375 -1.296875q-1.234375 -1.3125 -1.234375 -3.671875q0 -2.453125 1.25 -3.796875q1.265625 -1.34375 3.265625 -1.34375q1.9375 0 3.15625 1.328125q1.234375 1.3125 1.234375 3.703125q0 0.15625 0 0.4375l-7.21875 0q0.09375 1.59375 0.90625 2.453125q0.8125 0.84375 2.015625 0.84375q0.90625 0 1.546875 -0.46875q0.640625 -0.484375 1.015625 -1.515625zm-5.390625 -2.65625l5.40625 0q-0.109375 -1.21875 -0.625 -1.828125q-0.78125 -0.953125 -2.03125 -0.953125q-1.125 0 -1.90625 0.765625q-0.765625 0.75 -0.84375 2.015625zm9.141357 5.765625l0 -9.671875l1.46875 0l0 1.375q1.0625 -1.59375 3.078125 -1.59375q0.875 0 1.609375 0.3125q0.734375 0.3125 1.09375 0.828125q0.375 0.5 0.515625 1.203125q0.09375 0.453125 0.09375 1.59375l0 5.953125l-1.640625 0l0 -5.890625q0 -1.0 -0.203125 -1.484375q-0.1875 -0.5 -0.671875 -0.796875q-0.484375 -0.296875 -1.140625 -0.296875q-1.046875 0 -1.8125 0.671875q-0.75 0.65625 -0.75 2.515625l0 5.28125l-1.640625 0zm13.953857 -1.46875l0.234375 1.453125q-0.6875 0.140625 -1.234375 0.140625q-0.890625 0 -1.390625 -0.28125q-0.484375 -0.28125 -0.6875 -0.734375q-0.203125 -0.46875 -0.203125 -1.9375l0 -5.578125l-1.203125 0l0 -1.265625l1.203125 0l0 -2.3905945l1.625 -0.984375l0 3.3749695l1.65625 0l0 1.265625l-1.65625 0l0 5.671875q0 0.6875 0.078125 0.890625q0.09375 0.203125 0.28125 0.328125q0.203125 0.109375 0.578125 0.109375q0.265625 0 0.71875 -0.0625zm0.089538574 5.171875l0 -1.1875l10.859375 0l0 1.1875l-10.859375 0zm20.047607 -5.28125l0 1.578125l-8.828125 0q-0.015625 -0.59375 0.1875 -1.140625q0.34375 -0.90625 1.078125 -1.78125q0.75 -0.875 2.15625 -2.015625q2.171875 -1.78125 2.9375 -2.828125q0.765625 -1.046875 0.765625 -1.96875q0 -0.9843445 -0.703125 -1.6405945q-0.6875 -0.671875 -1.8125 -0.671875q-1.1875 0 -1.90625 0.71875q-0.703125 0.703125 -0.703125 1.9530945l-1.6875 -0.171875q0.171875 -1.8905945 1.296875 -2.8749695q1.140625 -0.984375 3.03125 -0.984375q1.921875 0 3.046875 1.0625q1.125 1.0625 1.125 2.6405945q0 0.796875 -0.328125 1.578125q-0.328125 0.78125 -1.09375 1.640625q-0.75 0.84375 -2.53125 2.34375q-1.46875 1.234375 -1.890625 1.6875q-0.421875 0.4375 -0.6875 0.875l6.546875 0z" fill-rule="nonzero"/><path fill="#000000" fill-opacity="0.0" d="m557.35547 445.7645l0 22.441925l-93.29132 0l0 21.936005" fill-rule="evenodd"/><path stroke="#595959" stroke-width="1.0" stroke-linejoin="round" stroke-linecap="butt" d="m557.35547 445.7645l0 22.441925l-93.29132 0l0 21.936005" fill-rule="evenodd"/><path fill="#000000" fill-opacity="0.0" d="m557.35547 445.7645l0 22.441925l99.90552 0l0 21.936005" fill-rule="evenodd"/><path stroke="#595959" stroke-width="1.0" stroke-linejoin="round" stroke-linecap="butt" d="m557.35547 445.7645l0 22.441925l99.90552 0l0 21.936005" fill-rule="evenodd"/><path fill="#000000" fill-opacity="0.0" d="m657.25336 451.02362l64.97638 0l0 49.858276l-64.97638 0z" fill-rule="evenodd"/><path fill="#595959" d="m668.44086 483.06363l0 -2.40625l2.390625 0l0 2.40625l-2.390625 0zm13.417969 0l-2.109375 0l0 -13.4375q-0.75 0.71875 -2.0 1.453125q-1.234375 0.71875 -2.21875 1.078125l0 -2.03125q1.78125 -0.828125 3.09375 -2.015625q1.328125 -1.1875 1.875 -2.296875l1.359375 0l0 17.25zm11.566406 0l-2.109375 0l0 -13.4375q-0.75 0.71875 -2.0 1.453125q-1.234375 0.71875 -2.21875 1.078125l0 -2.03125q1.78125 -0.828125 3.09375 -2.015625q1.328125 -1.1875 1.875 -2.296875l1.359375 0l0 17.25z" fill-rule="nonzero"/><path fill="#000000" fill-opacity="0.0" d="m415.08017 451.02362l64.97635 0l0 49.858276l-64.97635 0z" fill-rule="evenodd"/><path fill="#595959" d="m426.26767 483.06363l0 -2.40625l2.390625 0l0 2.40625l-2.390625 0zm13.417969 0l-2.109375 0l0 -13.4375q-0.75 0.71875 -2.0 1.453125q-1.234375 0.71875 -2.21875 1.078125l0 -2.03125q1.78125 -0.828125 3.09375 -2.015625q1.328125 -1.1875 1.875 -2.296875l1.359375 0l0 17.25zm5.4101562 -8.46875q0 -3.046875 0.625 -4.90625q0.625 -1.859375 1.859375 -2.859375q1.234375 -1.015625 3.109375 -1.015625q1.390625 0 2.421875 0.5625q1.046875 0.546875 1.71875 1.59375q0.6875 1.046875 1.078125 2.5625q0.390625 1.5 0.390625 4.0625q0 3.015625 -0.625 4.875q-0.625 1.859375 -1.859375 2.875q-1.234375 1.015625 -3.125 1.015625q-2.484375 0 -3.890625 -1.78125q-1.703125 -2.15625 -1.703125 -6.984375zm2.171875 0q0 4.21875 0.984375 5.625q0.984375 1.40625 2.4375 1.40625q1.453125 0 2.4375 -1.40625q1.0 -1.40625 1.0 -5.625q0 -4.25 -1.0 -5.640625q-0.984375 -1.390625 -2.453125 -1.390625q-1.453125 0 -2.328125 1.21875q-1.078125 1.578125 -1.078125 5.8125z" fill-rule="nonzero"/></g></svg>